<svg version="1.1" viewBox="0.0 0.0 960.0 720.0" fill="none" stroke="none" stroke-linecap="square" stroke-miterlimit="10" xmlns:xlink="http://www.w3.org/1999/xlink" xmlns="http://www.w3.org/2000/svg"><clipPath id="p.0"><path d="m0 0l960.0 0l0 720.0l-960.0 0l0 -720.0z" clip-rule="nonzero"/></clipPath><g clip-path="url(#p.0)"><path fill="#000000" fill-opacity="0.0" d="m0 0l960.0 0l0 720.0l-960.0 0z" fill-rule="evenodd"/><path fill="#073763" d="m573.17065 0.0131233595l339.1181 0l0 153.51181l-339.1181 0z" fill-rule="evenodd"/><path stroke="#000000" stroke-width="1.0" stroke-linejoin="round" stroke-linecap="butt" d="m573.17065 0.0131233595l339.1181 0l0 153.51181l-339.1181 0z" fill-rule="evenodd"/><path fill="#ffffff" d="m640.886 83.689026l0 -11.625l1.03125 0l2.875 5.6875l2.921875 -5.703125l0.984375 0l0 11.640625l-1.234375 0l0 -8.765625l-2.515625 4.6875l-0.5 0l-2.34375 -4.640625l0 8.71875l-1.21875 0zm16.25 0l-1.171875 -3.390625l-3.75 0l-1.1875 3.390625l-1.28125 0l4.296875 -11.828125l0.140625 0l4.296875 11.828125l-1.34375 0zm-4.578125 -4.40625l3.0625 0l-1.53125 -4.4375l-1.53125 4.4375zm6.984375 4.40625l3.171875 -5.9375l-3.109375 -5.703125l1.390625 0l2.453125 4.421875l2.40625 -4.421875l1.296875 0l-2.953125 5.6875l3.3125 5.953125l-1.484375 0l-2.5625 -4.609375l-2.5 4.609375l-1.421875 0zm13.5625 -7.5q0.875 0 1.59375 0.484375q0.734375 0.46875 1.15625 1.34375q0.4375 0.859375 0.4375 1.984375q0 1.125 -0.4375 2.015625q-0.4375 0.875 -1.203125 1.375q-0.765625 0.484375 -1.671875 0.484375q-1.71875 0 -2.671875 -1.46875q-0.953125 -1.46875 -0.953125 -4.015625q0 -2.046875 0.5 -3.5q0.5 -1.46875 1.421875 -2.203125q0.9375 -0.75 2.1875 -0.75q1.453125 0 2.546875 1.0625l-0.8125 0.9375l-0.015625 0.015625q-0.40625 -0.484375 -0.765625 -0.671875q-0.359375 -0.1875 -0.921875 -0.1875q-0.609375 0 -1.25 0.390625q-0.640625 0.375 -1.109375 1.375q-0.46875 1.0 -0.5 2.734375q0.390625 -0.65625 1.046875 -1.03125q0.671875 -0.375 1.421875 -0.375zm1.859375 -2.203125q0 -0.109375 0.171875 0.015625l-0.078125 0.078125l-0.09375 -0.09375zm0.21875 -0.03125q0.109375 0.140625 0.03125 0.09375q-0.0625 -0.046875 -0.078125 -0.046875l0.046875 -0.046875zm-2.15625 8.765625q0.84375 0 1.421875 -0.71875q0.578125 -0.71875 0.578125 -1.984375q0 -0.875 -0.296875 -1.484375q-0.296875 -0.609375 -0.765625 -0.90625q-0.46875 -0.296875 -0.96875 -0.296875q-0.65625 0 -1.28125 0.4375q-0.609375 0.4375 -1.0 1.125q-0.03125 0.296875 -0.03125 0.484375q0 0.828125 0.28125 1.59375q0.296875 0.765625 0.828125 1.265625q0.546875 0.484375 1.234375 0.484375zm9.40625 -6.53125q0.875 0 1.59375 0.484375q0.734375 0.46875 1.15625 1.34375q0.4375 0.859375 0.4375 1.984375q0 1.125 -0.4375 2.015625q-0.4375 0.875 -1.203125 1.375q-0.765625 0.484375 -1.671875 0.484375q-1.71875 0 -2.671875 -1.46875q-0.953125 -1.46875 -0.953125 -4.015625q0 -2.046875 0.5 -3.5q0.5 -1.46875 1.421875 -2.203125q0.9375 -0.75 2.1875 -0.75q1.453125 0 2.546875 1.0625l-0.8125 0.9375l-0.015625 0.015625q-0.40625 -0.484375 -0.765625 -0.671875q-0.359375 -0.1875 -0.921875 -0.1875q-0.609375 0 -1.25 0.390625q-0.640625 0.375 -1.109375 1.375q-0.46875 1.0 -0.5 2.734375q0.390625 -0.65625 1.046875 -1.03125q0.671875 -0.375 1.421875 -0.375zm1.859375 -2.203125q0 -0.109375 0.171875 0.015625l-0.078125 0.078125l-0.09375 -0.09375zm0.21875 -0.03125q0.109375 0.140625 0.03125 0.09375q-0.0625 -0.046875 -0.078125 -0.046875l0.046875 -0.046875zm-2.15625 8.765625q0.84375 0 1.421875 -0.71875q0.578125 -0.71875 0.578125 -1.984375q0 -0.875 -0.296875 -1.484375q-0.296875 -0.609375 -0.765625 -0.90625q-0.46875 -0.296875 -0.96875 -0.296875q-0.65625 0 -1.28125 0.4375q-0.609375 0.4375 -1.0 1.125q-0.03125 0.296875 -0.03125 0.484375q0 0.828125 0.28125 1.59375q0.296875 0.765625 0.828125 1.265625q0.546875 0.484375 1.234375 0.484375zm7.296875 0.96875q1.625 -5.3125 3.546875 -10.390625l-4.96875 0l0 -1.234375l6.59375 0l0 0.734375q-2.296875 5.78125 -3.703125 10.890625l-1.46875 0zm11.234375 -7.5625q1.0 0 1.796875 0.484375q0.796875 0.46875 1.25 1.359375q0.453125 0.890625 0.453125 2.0625q0 1.171875 -0.484375 2.046875q-0.46875 0.875 -1.296875 1.34375q-0.828125 0.46875 -1.875 0.46875q-1.0625 0 -1.96875 -0.46875q-0.90625 -0.46875 -1.484375 -1.3125l1.046875 -0.796875l0.015625 -0.015625q0.03125 0 0.03125 0.015625q0 0 0 0q0.484375 0.75 1.015625 1.09375q0.546875 0.34375 1.421875 0.34375q0.59375 0 1.109375 -0.34375q0.53125 -0.34375 0.84375 -0.96875q0.3125 -0.625 0.3125 -1.46875q0 -1.265625 -0.6875 -2.0q-0.6875 -0.75 -1.703125 -0.75q-0.59375 0 -1.1875 0.296875q-0.578125 0.28125 -1.0 0.796875l-0.828125 -0.328125l0.40625 -5.921875l5.890625 0l0 1.171875l-4.796875 0l-0.1875 3.34375q0.921875 -0.453125 1.90625 -0.453125zm-2.546875 5.171875q-0.078125 -0.140625 0.046875 -0.015625l-0.046875 0.015625zm0.21875 0q0 0.109375 -0.171875 -0.015625l0.09375 -0.078125l0.078125 0.09375zm17.078125 -9.234375l3.3125 0q1.9375 0 2.890625 0.765625q0.96875 0.75 0.96875 2.046875q0 0.859375 -0.46875 1.578125q-0.453125 0.71875 -1.25 1.0q0.96875 0.34375 1.578125 1.171875q0.609375 0.828125 0.609375 1.796875q0 1.53125 -1.09375 2.40625q-1.078125 0.859375 -3.265625 0.859375l-3.28125 0l0 -11.625zm3.125 4.8125q2.734375 0 2.734375 -1.84375q0 -0.84375 -0.625 -1.34375q-0.609375 -0.515625 -1.90625 -0.515625l-2.03125 0l0 3.703125l1.828125 0zm0.390625 5.671875q2.734375 0 2.734375 -2.203125q0 -2.359375 -3.0625 -2.359375l-1.890625 0l0 4.5625l2.21875 0zm12.875 -5.609375l0 0.015625q-0.546875 -0.5 -0.921875 -0.671875q-0.359375 -0.171875 -0.84375 -0.171875q-0.671875 0 -1.265625 0.34375q-0.59375 0.328125 -0.96875 1.015625q-0.375 0.671875 -0.375 1.703125l0 4.53125l-1.359375 0l0 -8.546875l1.40625 0l-0.046875 1.578125q0.359375 -0.84375 1.09375 -1.3125q0.734375 -0.46875 1.609375 -0.46875q1.375 0 2.265625 0.9375l-0.59375 1.046875zm0 0.015625q0.125 0.109375 0.0625 0.09375q-0.0625 -0.015625 -0.109375 -0.03125l0.046875 -0.0625zm-0.203125 0.0625q0 -0.0625 0.046875 -0.046875q0.0625 0 0.109375 0.046875l-0.03125 0.09375l-0.125 -0.078125l0 -0.015625zm6.65625 6.859375q-1.90625 0 -3.03125 -1.15625q-1.125 -1.15625 -1.125 -3.265625q0 -1.40625 0.515625 -2.421875q0.515625 -1.015625 1.40625 -1.546875q0.890625 -0.53125 1.984375 -0.53125q1.546875 0 2.5 1.03125q0.96875 1.03125 0.96875 3.015625q0 0.203125 -0.03125 0.625l-6.0625 0q0.078125 1.5625 0.875 2.375q0.796875 0.796875 2.03125 0.796875q1.34375 0 2.203125 -0.953125l0.75 0.71875q-1.078125 1.3125 -2.984375 1.3125zm1.859375 -5.296875q0 -1.203125 -0.609375 -1.890625q-0.59375 -0.703125 -1.59375 -0.703125q-0.921875 0 -1.625 0.65625q-0.6875 0.640625 -0.859375 1.9375l4.6875 0zm6.9375 -3.609375q1.828125 0 2.78125 0.953125q0.96875 0.953125 0.96875 3.234375l0 4.53125l-1.453125 0l0 -1.3125q-0.78125 1.515625 -2.90625 1.515625q-1.421875 0 -2.21875 -0.640625q-0.796875 -0.640625 -0.796875 -1.703125q0 -0.90625 0.578125 -1.578125q0.578125 -0.671875 1.546875 -1.03125q0.984375 -0.359375 2.15625 -0.359375q1.0625 0 1.921875 0.109375q-0.109375 -1.4375 -0.75 -2.015625q-0.640625 -0.59375 -1.921875 -0.59375q-0.625 0 -1.21875 0.25q-0.578125 0.234375 -1.0625 0.703125l-0.65625 -0.859375q1.1875 -1.203125 3.03125 -1.203125zm-0.484375 7.890625q1.390625 0 2.1875 -0.796875q0.796875 -0.8125 0.875 -2.34375q-0.84375 -0.140625 -1.8125 -0.140625q-1.40625 0 -2.234375 0.46875q-0.828125 0.46875 -0.828125 1.421875q0 1.390625 1.8125 1.390625zm8.984375 -3.4375l-1.125 1.03125l0 3.234375l-1.359375 0l0 -12.40625l1.53125 0l0 0.125q-0.109375 0.125 -0.140625 0.25q-0.03125 0.125 -0.03125 0.453125l0 6.96875l4.265625 -3.953125q0.46875 0.09375 1.0 0.09375l0.484375 0l-3.59375 3.375l4.1875 5.09375l-1.734375 0.078125l-3.484375 -4.34375zm10.28125 4.421875q-1.140625 0 -2.046875 -0.5625q-0.890625 -0.5625 -1.390625 -1.5625q-0.5 -1.015625 -0.5 -2.296875q0 -1.296875 0.5 -2.296875q0.5 -1.015625 1.390625 -1.578125q0.90625 -0.578125 2.046875 -0.578125q1.125 0 2.015625 0.578125q0.90625 0.5625 1.40625 1.578125q0.5 1.0 0.5 2.296875q0 1.28125 -0.5 2.296875q-0.5 1.0 -1.40625 1.5625q-0.890625 0.5625 -2.015625 0.5625zm0 -1.125q0.71875 0 1.28125 -0.421875q0.578125 -0.4375 0.90625 -1.1875q0.328125 -0.765625 0.328125 -1.71875q0 -1.453125 -0.71875 -2.375q-0.703125 -0.921875 -1.796875 -0.921875q-1.109375 0 -1.828125 0.921875q-0.703125 0.921875 -0.703125 2.375q0 0.953125 0.328125 1.71875q0.328125 0.75 0.890625 1.1875q0.578125 0.421875 1.3125 0.421875zm8.78125 1.171875q-1.34375 0 -2.15625 -1.0q-0.796875 -1.0 -0.78125 -2.96875l0.03125 -4.765625l1.296875 0l0 4.765625q0 1.53125 0.53125 2.21875q0.53125 0.671875 1.40625 0.671875q0.96875 0 1.625 -0.75q0.671875 -0.765625 0.671875 -2.203125l0 -4.703125l1.3125 0l0 7.203125q0 0.453125 0.015625 0.75q0.03125 0.28125 0.171875 0.578125l-1.296875 0q-0.125 -0.28125 -0.15625 -0.578125q-0.03125 -0.296875 -0.03125 -0.734375q-0.40625 0.71875 -1.109375 1.125q-0.6875 0.390625 -1.53125 0.390625zm13.484375 -0.984375q-1.234375 0.90625 -2.703125 0.90625q-1.421875 0 -2.015625 -0.84375q-0.578125 -0.859375 -0.578125 -2.8125q0 -0.3125 0.03125 -1.09375l0.171875 -2.796875l-1.875 0l0 -1.109375l1.953125 0l0.125 -2.265625l1.5 -0.25l0.1875 -0.015625l0.015625 0.109375q-0.125 0.1875 -0.203125 0.328125q-0.0625 0.125 -0.078125 0.40625l-0.203125 1.6875l2.828125 0l0 1.109375l-2.90625 0l-0.171875 2.890625q-0.03125 0.75 -0.03125 0.984375q0 1.5 0.34375 2.03125q0.34375 0.53125 1.109375 0.53125q0.5625 0 1.03125 -0.203125q0.46875 -0.21875 1.0625 -0.65625l0.40625 1.0625zm11.265625 -10.84375l3.3125 0q1.9375 0 2.890625 0.765625q0.96875 0.75 0.96875 2.046875q0 0.859375 -0.46875 1.578125q-0.453125 0.71875 -1.25 1.0q0.96875 0.34375 1.578125 1.171875q0.609375 0.828125 0.609375 1.796875q0 1.53125 -1.09375 2.40625q-1.078125 0.859375 -3.265625 0.859375l-3.28125 0l0 -11.625zm3.125 4.8125q2.734375 0 2.734375 -1.84375q0 -0.84375 -0.625 -1.34375q-0.609375 -0.515625 -1.90625 -0.515625l-2.03125 0l0 3.703125l1.828125 0zm0.390625 5.671875q2.734375 0 2.734375 -2.203125q0 -2.359375 -3.0625 -2.359375l-1.890625 0l0 4.5625l2.21875 0zm9.59375 1.296875q-1.140625 0 -2.046875 -0.5625q-0.890625 -0.5625 -1.390625 -1.5625q-0.5 -1.015625 -0.5 -2.296875q0 -1.296875 0.5 -2.296875q0.5 -1.015625 1.390625 -1.578125q0.90625 -0.578125 2.046875 -0.578125q1.125 0 2.015625 0.578125q0.90625 0.5625 1.40625 1.578125q0.5 1.0 0.5 2.296875q0 1.28125 -0.5 2.296875q-0.5 1.0 -1.40625 1.5625q-0.890625 0.5625 -2.015625 0.5625zm0 -1.125q0.71875 0 1.28125 -0.421875q0.578125 -0.4375 0.90625 -1.1875q0.328125 -0.765625 0.328125 -1.71875q0 -1.453125 -0.71875 -2.375q-0.703125 -0.921875 -1.796875 -0.921875q-1.109375 0 -1.828125 0.921875q-0.703125 0.921875 -0.703125 2.375q0 0.953125 0.328125 1.71875q0.328125 0.75 0.890625 1.1875q0.578125 0.421875 1.3125 0.421875zm9.203125 -7.75q1.828125 0 2.78125 0.953125q0.96875 0.953125 0.96875 3.234375l0 4.53125l-1.453125 0l0 -1.3125q-0.78125 1.515625 -2.90625 1.515625q-1.421875 0 -2.21875 -0.640625q-0.796875 -0.640625 -0.796875 -1.703125q0 -0.90625 0.578125 -1.578125q0.578125 -0.671875 1.546875 -1.03125q0.984375 -0.359375 2.15625 -0.359375q1.0625 0 1.921875 0.109375q-0.109375 -1.4375 -0.75 -2.015625q-0.640625 -0.59375 -1.921875 -0.59375q-0.625 0 -1.21875 0.25q-0.578125 0.234375 -1.0625 0.703125l-0.65625 -0.859375q1.1875 -1.203125 3.03125 -1.203125zm-0.484375 7.890625q1.390625 0 2.1875 -0.796875q0.796875 -0.8125 0.875 -2.34375q-0.84375 -0.140625 -1.8125 -0.140625q-1.40625 0 -2.234375 0.46875q-0.828125 0.46875 -0.828125 1.421875q0 1.390625 1.8125 1.390625zm13.21875 -5.921875l0 0.015625q-0.546875 -0.5 -0.921875 -0.671875q-0.359375 -0.171875 -0.84375 -0.171875q-0.671875 0 -1.265625 0.34375q-0.59375 0.328125 -0.96875 1.015625q-0.375 0.671875 -0.375 1.703125l0 4.53125l-1.359375 0l0 -8.546875l1.40625 0l-0.046875 1.578125q0.359375 -0.84375 1.09375 -1.3125q0.734375 -0.46875 1.609375 -0.46875q1.375 0 2.265625 0.9375l-0.59375 1.046875zm0 0.015625q0.125 0.109375 0.0625 0.09375q-0.0625 -0.015625 -0.109375 -0.03125l0.046875 -0.0625zm-0.203125 0.0625q0 -0.0625 0.046875 -0.046875q0.0625 0 0.109375 0.046875l-0.03125 0.09375l-0.125 -0.078125l0 -0.015625zm5.9375 6.859375q-0.90625 0 -1.71875 -0.515625q-0.796875 -0.515625 -1.296875 -1.53125q-0.5 -1.03125 -0.5 -2.484375q0 -1.484375 0.515625 -2.46875q0.53125 -0.984375 1.34375 -1.453125q0.828125 -0.484375 1.734375 -0.484375q0.859375 0 1.5 0.390625q0.640625 0.390625 0.984375 1.078125l0 -5.125l1.421875 0l0 0.125q-0.109375 0.125 -0.140625 0.25q-0.03125 0.125 -0.03125 0.453125l0.015625 10.25q0 0.453125 0.03125 0.75q0.03125 0.28125 0.15625 0.578125l-1.328125 0q-0.125 -0.296875 -0.15625 -0.578125q-0.03125 -0.296875 -0.03125 -0.75q-0.40625 0.71875 -1.046875 1.125q-0.640625 0.390625 -1.453125 0.390625zm0.21875 -1.171875q1.15625 0 1.6875 -0.90625q0.546875 -0.921875 0.546875 -2.421875q0 -1.515625 -0.59375 -2.421875q-0.578125 -0.921875 -1.765625 -0.921875q-1.109375 0 -1.71875 0.84375q-0.59375 0.828125 -0.59375 2.265625q0 1.640625 0.625 2.609375q0.625 0.953125 1.8125 0.953125z" fill-rule="nonzero"/><path fill="#b7b7b7" d="m573.63715 0.014597113l54.70868 0l0 30.708662l-54.70868 0z" fill-rule="evenodd"/><path stroke="#000000" stroke-width="1.0" stroke-linejoin="round" stroke-linecap="butt" d="m573.63715 0.014597113l54.70868 0l0 30.708662l-54.70868 0z" fill-rule="evenodd"/><path fill="#000000" d="m591.7181 16.413925l3.953125 0l0 4.875q-0.828125 0.703125 -1.71875 1.015625q-0.875 0.328125 -1.921875 0.328125q-1.484375 0 -2.5625 -0.78125q-1.0625 -0.78125 -1.625 -2.15625q-0.546875 -1.390625 -0.546875 -3.234375q0 -2.25 0.765625 -3.609375q0.78125 -1.375 1.859375 -1.921875q1.09375 -0.5625 2.109375 -0.5625q1.171875 0 2.140625 0.625q0.96875 0.609375 1.53125 1.65625l-1.390625 1.34375l-0.015625 0.015625q-0.09375 -0.125 -0.28125 -0.4375q-0.25 -0.421875 -0.484375 -0.703125q-0.21875 -0.296875 -0.609375 -0.5q-0.375 -0.21875 -0.921875 -0.21875q-0.671875 0 -1.25 0.421875q-0.578125 0.421875 -0.9375 1.375q-0.359375 0.9375 -0.359375 2.390625q0 1.375 0.328125 2.40625q0.328125 1.03125 0.921875 1.578125q0.59375 0.53125 1.328125 0.53125q1.03125 0 1.671875 -0.484375l0 -2.1875l-1.984375 0l0 -1.765625zm2.328125 -2.453125q0 -0.046875 0.03125 -0.046875q0.03125 0 0.1875 0.125l-0.0625 0.0625l-0.15625 -0.140625l0 0zm0.34375 0.15625q0 0 -0.125 -0.078125l0.03125 -0.03125l0.09375 0.109375zm2.53125 -3.453125l2.5625 0l3.6875 8.328125l0 -8.328125l2.03125 0l0 0.203125q-0.109375 0.109375 -0.140625 0.25q-0.015625 0.125 0 0.4375l0 10.734375l-2.3125 0l-3.9375 -8.796875l0 8.796875l-1.890625 0l0 -11.625zm9.546875 0l3.015625 0q1.484375 0 2.359375 0.40625q0.875 0.390625 1.5 1.21875q1.1875 1.625 1.1875 4.265625q0 2.75 -1.28125 4.25q-1.265625 1.484375 -4.0 1.484375l-2.78125 0l0 -11.625zm2.75 9.984375q1.625 0 2.421875 -1.03125q0.796875 -1.03125 0.796875 -3.0q0 -4.21875 -3.03125 -4.21875l-0.90625 0l0 8.25l0.71875 0z" fill-rule="nonzero"/><path fill="#b7b7b7" d="m573.63715 30.714565l54.70868 0l0 30.70866l-54.70868 0z" fill-rule="evenodd"/><path stroke="#000000" stroke-width="1.0" stroke-linejoin="round" stroke-linecap="butt" d="m573.63715 30.714565l54.70868 0l0 30.70866l-54.70868 0z" fill-rule="evenodd"/><path fill="#000000" d="m590.95245 52.988895l-3.765625 -11.625l2.203125 0l2.4375 8.25l2.3125 -8.25l2.15625 0l-3.734375 11.625l-1.609375 0zm10.640625 -1.34375q1.1875 0 2.109375 -1.625l1.578125 1.03125q-0.65625 1.125 -1.625 1.703125q-0.953125 0.578125 -2.203125 0.578125q-1.3125 0 -2.359375 -0.671875q-1.03125 -0.6875 -1.640625 -2.046875q-0.59375 -1.375 -0.59375 -3.375q0 -2.15625 0.703125 -3.53125q0.703125 -1.390625 1.78125 -2.015625q1.078125 -0.625 2.28125 -0.625q1.328125 0 2.28125 0.703125q0.96875 0.703125 1.5 1.9375l-1.515625 0.75l-0.015625 0l0 0q-0.34375 -0.953125 -0.921875 -1.328125q-0.5625 -0.375 -1.265625 -0.375q-1.34375 0 -2.0 1.171875q-0.65625 1.15625 -0.65625 3.21875q0 1.265625 0.328125 2.296875q0.328125 1.03125 0.90625 1.625q0.59375 0.578125 1.328125 0.578125zm2.0625 -7.3125q0 -0.03125 0.03125 -0.03125q0.03125 0 0.078125 0.078125q0.0625 0.078125 0.078125 0.09375l-0.09375 0.046875l-0.09375 -0.1875zm0.265625 0.25q0 0.03125 -0.03125 0q-0.015625 -0.046875 -0.046875 -0.109375l0.03125 -0.015625l0.046875 0.125zm7.0 7.0625q1.1875 0 2.109375 -1.625l1.578125 1.03125q-0.65625 1.125 -1.625 1.703125q-0.953125 0.578125 -2.203125 0.578125q-1.3125 0 -2.359375 -0.671875q-1.03125 -0.6875 -1.640625 -2.046875q-0.59375 -1.375 -0.59375 -3.375q0 -2.15625 0.703125 -3.53125q0.703125 -1.390625 1.78125 -2.015625q1.078125 -0.625 2.28125 -0.625q1.328125 0 2.28125 0.703125q0.96875 0.703125 1.5 1.9375l-1.515625 0.75l-0.015625 0l0 0q-0.34375 -0.953125 -0.921875 -1.328125q-0.5625 -0.375 -1.265625 -0.375q-1.34375 0 -2.0 1.171875q-0.65625 1.15625 -0.65625 3.21875q0 1.265625 0.328125 2.296875q0.328125 1.03125 0.90625 1.625q0.59375 0.578125 1.328125 0.578125zm2.0625 -7.3125q0 -0.03125 0.03125 -0.03125q0.03125 0 0.078125 0.078125q0.0625 0.078125 0.078125 0.09375l-0.09375 0.046875l-0.09375 -0.1875zm0.265625 0.25q0 0.03125 -0.03125 0q-0.015625 -0.046875 -0.046875 -0.109375l0.03125 -0.015625l0.046875 0.125z" fill-rule="nonzero"/><path fill="#b7b7b7" d="m573.63715 61.414536l54.70868 0l0 30.708656l-54.70868 0z" fill-rule="evenodd"/><path stroke="#000000" stroke-width="1.0" stroke-linejoin="round" stroke-linecap="butt" d="m573.63715 61.414536l54.70868 0l0 30.708656l-54.70868 0z" fill-rule="evenodd"/><path fill="#000000" d="m592.5306 76.95449q1.1875 0.5625 1.84375 1.09375q0.65625 0.515625 0.921875 1.09375q0.28125 0.578125 0.28125 1.34375q0 0.921875 -0.4375 1.734375q-0.421875 0.796875 -1.34375 1.3125q-0.921875 0.5 -2.34375 0.5q-2.265625 0 -3.9375 -1.625l0.921875 -1.59375l0 -0.015625l0.015625 0.015625q1.359375 1.421875 3.171875 1.421875q0.875 0 1.34375 -0.40625q0.484375 -0.421875 0.484375 -1.234375q0 -0.40625 -0.203125 -0.734375q-0.203125 -0.34375 -0.703125 -0.671875q-0.484375 -0.34375 -1.359375 -0.734375q-1.625 -0.703125 -2.359375 -1.578125q-0.71875 -0.875 -0.71875 -2.03125q0 -0.84375 0.46875 -1.546875q0.46875 -0.703125 1.28125 -1.109375q0.828125 -0.421875 1.859375 -0.421875q1.15625 0 1.984375 0.390625q0.84375 0.375 1.609375 1.171875l-1.046875 1.453125l0 0.03125q-0.015625 0 -0.015625 0q0 -0.015625 0 -0.015625q-0.421875 -0.6875 -1.09375 -1.0q-0.65625 -0.3125 -1.453125 -0.3125q-0.515625 0 -0.890625 0.1875q-0.359375 0.171875 -0.546875 0.46875q-0.1875 0.28125 -0.1875 0.625q0 0.40625 0.203125 0.734375q0.21875 0.3125 0.734375 0.640625q0.53125 0.328125 1.515625 0.8125zm1.46875 -2.171875q0 -0.015625 0.015625 -0.015625q0.03125 0 0.078125 0.046875q0.0625 0.03125 0.109375 0.0625l-0.03125 0.046875l-0.171875 -0.109375l0 -0.03125zm0.265625 0.03125q0.0625 0.09375 0.0625 0.125q0 0 -0.015625 0q-0.03125 0 -0.109375 -0.0625l0.0625 -0.0625zm-5.5625 6.0q0 0.015625 -0.015625 0.015625q-0.03125 0 -0.109375 -0.03125q-0.0625 -0.046875 -0.109375 -0.0625l0.046875 -0.0625l0.171875 0.109375l0.015625 0.03125zm-0.265625 -0.015625q-0.078125 -0.0625 -0.078125 -0.09375q0 0 0 0q0 -0.015625 0.015625 -0.015625l0.09375 0.046875l-0.03125 0.0625zm13.15625 1.546875q1.1875 0 2.109375 -1.625l1.578125 1.03125q-0.65625 1.125 -1.625 1.703125q-0.953125 0.578125 -2.203125 0.578125q-1.3125 0 -2.359375 -0.671875q-1.03125 -0.6875 -1.640625 -2.046875q-0.59375 -1.375 -0.59375 -3.375q0 -2.15625 0.703125 -3.53125q0.703125 -1.390625 1.78125 -2.015625q1.078125 -0.625 2.28125 -0.625q1.328125 0 2.28125 0.703125q0.96875 0.703125 1.5 1.9375l-1.515625 0.75l-0.015625 0l0 0q-0.34375 -0.953125 -0.921875 -1.328125q-0.5625 -0.375 -1.265625 -0.375q-1.34375 0 -2.0 1.171875q-0.65625 1.15625 -0.65625 3.21875q0 1.265625 0.328125 2.296875q0.328125 1.03125 0.90625 1.625q0.59375 0.578125 1.328125 0.578125zm2.0625 -7.3125q0 -0.03125 0.03125 -0.03125q0.03125 0 0.078125 0.078125q0.0625 0.078125 0.078125 0.09375l-0.09375 0.046875l-0.09375 -0.1875zm0.265625 0.25q0 0.03125 -0.03125 0q-0.015625 -0.046875 -0.046875 -0.109375l0.03125 -0.015625l0.046875 0.125zm5.1875 3.109375l-0.5 0.546875l0 4.75l-2.15625 0l0 -11.625l2.296875 0l0 0.203125q-0.09375 0.109375 -0.125 0.25q-0.03125 0.125 -0.015625 0.4375l0 3.5625l3.953125 -4.59375q0.65625 0.140625 1.078125 0.140625l1.296875 0l-4.328125 4.953125l4.484375 6.65625l-2.53125 0.109375l-3.453125 -5.390625z" fill-rule="nonzero"/><path fill="#b7b7b7" d="m573.63715 92.1145l54.70868 0l0 30.708664l-54.70868 0z" fill-rule="evenodd"/><path stroke="#000000" stroke-width="1.0" stroke-linejoin="round" stroke-linecap="butt" d="m573.63715 92.1145l54.70868 0l0 30.708664l-54.70868 0z" fill-rule="evenodd"/><path fill="#000000" d="m596.929 113.04508q1.1875 0 2.109375 -1.625l1.578125 1.03125q-0.65625 1.125 -1.625 1.703125q-0.953125 0.578125 -2.203125 0.578125q-1.3125 0 -2.359375 -0.671875q-1.03125 -0.6875 -1.640625 -2.046875q-0.59375 -1.375 -0.59375 -3.375q0 -2.15625 0.703125 -3.53125q0.703125 -1.390625 1.78125 -2.015625q1.078125 -0.625 2.28125 -0.625q1.328125 0 2.28125 0.703125q0.96875 0.703125 1.5 1.9375l-1.515625 0.75l-0.015625 0l0 0q-0.34375 -0.953125 -0.921875 -1.328125q-0.5625 -0.375 -1.265625 -0.375q-1.34375 0 -2.0 1.171875q-0.65625 1.15625 -0.65625 3.21875q0 1.265625 0.328125 2.296875q0.328125 1.03125 0.90625 1.625q0.59375 0.578125 1.328125 0.578125zm2.0625 -7.3125q0 -0.03125 0.03125 -0.03125q0.03125 0 0.078125 0.078125q0.0625 0.078125 0.078125 0.09375l-0.09375 0.046875l-0.09375 -0.1875zm0.265625 0.25q0 0.03125 -0.03125 0q-0.015625 -0.046875 -0.046875 -0.109375l0.03125 -0.015625l0.046875 0.125zm7.265625 1.671875q1.1875 0.5625 1.84375 1.09375q0.65625 0.515625 0.921875 1.09375q0.28125 0.578125 0.28125 1.34375q0 0.921875 -0.4375 1.734375q-0.421875 0.796875 -1.34375 1.3125q-0.921875 0.5 -2.34375 0.5q-2.265625 0 -3.9375 -1.625l0.921875 -1.59375l0 -0.015625l0.015625 0.015625q1.359375 1.421875 3.171875 1.421875q0.875 0 1.34375 -0.40625q0.484375 -0.421875 0.484375 -1.234375q0 -0.40625 -0.203125 -0.734375q-0.203125 -0.34375 -0.703125 -0.671875q-0.484375 -0.34375 -1.359375 -0.734375q-1.625 -0.703125 -2.359375 -1.578125q-0.71875 -0.875 -0.71875 -2.03125q0 -0.84375 0.46875 -1.546875q0.46875 -0.703125 1.28125 -1.109375q0.828125 -0.421875 1.859375 -0.421875q1.15625 0 1.984375 0.390625q0.84375 0.375 1.609375 1.171875l-1.046875 1.453125l0 0.03125q-0.015625 0 -0.015625 0q0 -0.015625 0 -0.015625q-0.421875 -0.6875 -1.09375 -1.0q-0.65625 -0.3125 -1.453125 -0.3125q-0.515625 0 -0.890625 0.1875q-0.359375 0.171875 -0.546875 0.46875q-0.1875 0.28125 -0.1875 0.625q0 0.40625 0.203125 0.734375q0.21875 0.3125 0.734375 0.640625q0.53125 0.328125 1.515625 0.8125zm1.46875 -2.171875q0 -0.015625 0.015625 -0.015625q0.03125 0 0.078125 0.046875q0.0625 0.03125 0.109375 0.0625l-0.03125 0.046875l-0.171875 -0.109375l0 -0.03125zm0.265625 0.03125q0.0625 0.09375 0.0625 0.125q0 0 -0.015625 0q-0.03125 0 -0.109375 -0.0625l0.0625 -0.0625zm-5.5625 6.0q0 0.015625 -0.015625 0.015625q-0.03125 0 -0.109375 -0.03125q-0.0625 -0.046875 -0.109375 -0.0625l0.046875 -0.0625l0.171875 0.109375l0.015625 0.03125zm-0.265625 -0.015625q-0.078125 -0.0625 -0.078125 -0.09375q0 0 0 0q0 -0.015625 0.015625 -0.015625l0.09375 0.046875l-0.03125 0.0625z" fill-rule="nonzero"/><path fill="#b7b7b7" d="m573.63715 122.81447l54.70868 0l0 30.708664l-54.70868 0z" fill-rule="evenodd"/><path stroke="#000000" stroke-width="1.0" stroke-linejoin="round" stroke-linecap="butt" d="m573.63715 122.81447l54.70868 0l0 30.708664l-54.70868 0z" fill-rule="evenodd"/><path fill="#000000" d="m597.19464 138.35443q1.1875 0.5625 1.84375 1.09375q0.65625 0.515625 0.921875 1.09375q0.28125 0.578125 0.28125 1.34375q0 0.921875 -0.4375 1.734375q-0.421875 0.796875 -1.34375 1.3125q-0.921875 0.5 -2.34375 0.5q-2.265625 0 -3.9375 -1.625l0.921875 -1.59375l0 -0.015625l0.015625 0.015625q1.359375 1.421875 3.171875 1.421875q0.875 0 1.34375 -0.40625q0.484375 -0.421875 0.484375 -1.234375q0 -0.40625 -0.203125 -0.734375q-0.203125 -0.34375 -0.703125 -0.671875q-0.484375 -0.34375 -1.359375 -0.734375q-1.625 -0.703125 -2.359375 -1.578125q-0.71875 -0.875 -0.71875 -2.03125q0 -0.84375 0.46875 -1.546875q0.46875 -0.703125 1.28125 -1.109375q0.828125 -0.421875 1.859375 -0.421875q1.15625 0 1.984375 0.390625q0.84375 0.375 1.609375 1.171875l-1.046875 1.453125l0 0.03125q-0.015625 0 -0.015625 0q0 -0.015625 0 -0.015625q-0.421875 -0.6875 -1.09375 -1.0q-0.65625 -0.3125 -1.453125 -0.3125q-0.515625 0 -0.890625 0.1875q-0.359375 0.171875 -0.546875 0.46875q-0.1875 0.28125 -0.1875 0.625q0 0.40625 0.203125 0.734375q0.21875 0.3125 0.734375 0.640625q0.53125 0.328125 1.515625 0.8125zm1.46875 -2.171875q0 -0.015625 0.015625 -0.015625q0.03125 0 0.078125 0.046875q0.0625 0.03125 0.109375 0.0625l-0.03125 0.046875l-0.171875 -0.109375l0 -0.03125zm0.265625 0.03125q0.0625 0.09375 0.0625 0.125q0 0 -0.015625 0q-0.03125 0 -0.109375 -0.0625l0.0625 -0.0625zm-5.5625 6.0q0 0.015625 -0.015625 0.015625q-0.03125 0 -0.109375 -0.03125q-0.0625 -0.046875 -0.109375 -0.0625l0.046875 -0.0625l0.171875 0.109375l0.015625 0.03125zm-0.265625 -0.015625q-0.078125 -0.0625 -0.078125 -0.09375q0 0 0 0q0 -0.015625 0.015625 -0.015625l0.09375 0.046875l-0.03125 0.0625zm12.609375 3.234375q-1.375 0 -2.375 -0.734375q-0.984375 -0.734375 -1.515625 -2.125q-0.515625 -1.390625 -0.515625 -3.328125q0 -1.90625 0.515625 -3.265625q0.53125 -1.359375 1.515625 -2.078125q1.0 -0.734375 2.375 -0.734375q1.375 0 2.359375 0.734375q1.0 0.71875 1.515625 2.078125q0.53125 1.359375 0.53125 3.265625q0 1.9375 -0.53125 3.328125q-0.515625 1.390625 -1.515625 2.125q-0.984375 0.734375 -2.359375 0.734375zm0 -1.6875q0.6875 0 1.1875 -0.5625q0.515625 -0.578125 0.78125 -1.609375q0.265625 -1.046875 0.265625 -2.4375q0 -1.28125 -0.265625 -2.25q-0.265625 -0.96875 -0.78125 -1.5q-0.5 -0.53125 -1.1875 -0.53125q-0.6875 0 -1.203125 0.53125q-0.5 0.53125 -0.765625 1.5q-0.265625 0.96875 -0.265625 2.25q0 1.390625 0.265625 2.4375q0.265625 1.03125 0.765625 1.609375q0.515625 0.5625 1.203125 0.5625z" fill-rule="nonzero"/><path fill="#b7b7b7" d="m883.90564 46.061924l28.379639 0l0 30.69997l-28.379639 0z" fill-rule="evenodd"/><path stroke="#000000" stroke-width="1.0" stroke-linejoin="round" stroke-linecap="butt" d="m883.90564 46.061924l28.379639 0l0 30.69997l-28.379639 0z" fill-rule="evenodd"/><path fill="#000000" d="m897.2908 66.316284l0 -3.2656288l-3.09375 0l0 -1.59375l3.09375 0l0 -2.984375l1.8125 0l0 2.984375l2.984375 0l0 1.59375l-2.984375 0l0 3.2656288l-1.8125 0z" fill-rule="nonzero"/><path fill="#b7b7b7" d="m883.90564 76.761894l28.379639 0l0 30.699966l-28.379639 0z" fill-rule="evenodd"/><path stroke="#000000" stroke-width="1.0" stroke-linejoin="round" stroke-linecap="butt" d="m883.90564 76.761894l28.379639 0l0 30.699966l-28.379639 0z" fill-rule="evenodd"/><path fill="#000000" d="m894.6189 93.906876l0 -1.703125l7.0 0l0 1.703125l-7.0 0z" fill-rule="nonzero"/><path fill="#000000" fill-opacity="0.0" d="m573.63715 138.16881l-68.41348 0l0 170.04723l-123.36603 0" fill-rule="evenodd"/><path stroke="#000000" stroke-width="3.0" stroke-linejoin="round" stroke-linecap="butt" d="m562.2672 138.1688l-57.04355 0l0 170.04724l-111.996 0" fill-rule="evenodd"/><path fill="#000000" stroke="#000000" stroke-width="3.0" stroke-linecap="butt" d="m562.26715 133.2338l9.870056 0l0 9.87001l-9.870056 0l0 -9.87001z" fill-rule="nonzero"/><path fill="#000000" stroke="#000000" stroke-width="3.0" stroke-linecap="butt" d="m393.22766 313.15103l-9.869995 0l0 -9.869995l9.869995 0l0 9.869995z" fill-rule="nonzero"/><path fill="#000000" fill-opacity="0.0" d="m381.84274 279.84958l95.89743 0l0 -172.37796l95.88208 0" fill-rule="evenodd"/><path stroke="#000000" stroke-width="3.0" stroke-linejoin="round" stroke-linecap="butt" d="m393.21277 279.84958l84.527435 0l0 -172.37796l84.512115 0" fill-rule="evenodd"/><path fill="#000000" stroke="#000000" stroke-width="3.0" stroke-linecap="butt" d="m393.21277 284.78458l-9.869995 0l0 -9.869995l9.869995 0l0 9.869995z" fill-rule="nonzero"/><path fill="#000000" stroke="#000000" stroke-width="3.0" stroke-linecap="butt" d="m562.2523 102.53662l9.869995 0l0 9.870003l-9.869995 0l0 -9.870003z" fill-rule="nonzero"/><path fill="#000000" fill-opacity="0.0" d="m381.85764 251.47752l66.380646 0l0 -174.70865l125.398865 0" fill-rule="evenodd"/><path stroke="#000000" stroke-width="3.0" stroke-linejoin="round" stroke-linecap="butt" d="m393.22766 251.47752l55.01062 0l0 -174.70865l114.02893 0" fill-rule="evenodd"/><path fill="#000000" stroke="#000000" stroke-width="3.0" stroke-linecap="butt" d="m393.22766 256.41254l-9.869995 0l0 -9.87001l9.869995 0l0 9.87001z" fill-rule="nonzero"/><path fill="#000000" stroke="#000000" stroke-width="3.0" stroke-linecap="butt" d="m562.26715 71.83386l9.870056 0l0 9.870003l-9.870056 0l0 -9.870003z" fill-rule="nonzero"/><path fill="#000000" fill-opacity="0.0" d="m573.63715 46.068897l-541.10956 0l0 205.44882l25.015099 0" fill-rule="evenodd"/><path stroke="#000000" stroke-width="3.0" stroke-linejoin="round" stroke-linecap="butt" d="m562.2672 46.068897l-529.7396 0l0 205.44882l13.645096 0" fill-rule="evenodd"/><path fill="#000000" stroke="#000000" stroke-width="3.0" stroke-linecap="butt" d="m562.26715 41.1339l9.870056 0l0 9.869999l-9.870056 0l0 -9.869999z" fill-rule="nonzero"/><path fill="#000000" stroke="#000000" stroke-width="3.0" stroke-linecap="butt" d="m46.172676 246.58272l9.869999 0l0 9.87001l-9.869999 0l0 -9.87001z" fill-rule="nonzero"/><path fill="#000000" fill-opacity="0.0" d="m573.63715 15.368928l-572.52423 0l0 264.47244l56.42977 0" fill-rule="evenodd"/><path stroke="#000000" stroke-width="3.0" stroke-linejoin="round" stroke-linecap="butt" d="m562.2672 15.368928l-561.1543 0l0 264.47244l45.05977 0" fill-rule="evenodd"/><path fill="#000000" stroke="#000000" stroke-width="3.0" stroke-linecap="butt" d="m562.26715 10.4339285l9.870056 0l0 9.87l-9.870056 0l0 -9.87z" fill-rule="nonzero"/><path fill="#000000" stroke="#000000" stroke-width="3.0" stroke-linecap="butt" d="m46.172676 274.90637l9.869999 0l0 9.869995l-9.869999 0l0 -9.869995z" fill-rule="nonzero"/><path fill="#b7b7b7" d="m737.5656 179.46326l174.70868 0l0 30.708664l-174.70868 0z" fill-rule="evenodd"/><path stroke="#000000" stroke-width="1.0" stroke-linejoin="round" stroke-linecap="butt" d="m737.5656 179.46326l174.70868 0l0 30.708664l-174.70868 0z" fill-rule="evenodd"/><path fill="#000000" d="m751.8887 196.1307l-0.4375 0.46875l0 4.078125l-1.84375 0l0 -9.96875l1.96875 0l0 0.171875q-0.078125 0.09375 -0.109375 0.21875q-0.015625 0.109375 -0.015625 0.375l0 3.046875l3.390625 -3.9375q0.5625 0.125 0.9375 0.125l1.09375 0l-3.703125 4.234375l3.84375 5.71875l-2.171875 0.09375l-2.953125 -4.625zm6.0625 0.140625l0 -1.453125l6.0 0l0 1.453125l-6.0 0zm10.0 4.40625l0 -8.421875l-2.703125 0l0 -1.546875l7.34375 0l0 1.546875l-2.8125 0l0 8.421875l-1.828125 0zm12.234375 -7.46875q-0.015625 0.640625 -0.203125 1.296875q-0.171875 0.65625 -0.515625 1.578125l-1.859375 5.125q-0.453125 1.25 -1.109375 1.765625q-0.640625 0.53125 -1.578125 0.53125q-0.515625 0 -0.9375 -0.171875q-0.421875 -0.171875 -0.90625 -0.5625l0.59375 -1.28125l0 -0.015625q0.015625 0 0.03125 0.015625q0 0.015625 0.15625 0.140625q0.3125 0.25 0.53125 0.375q0.234375 0.125 0.484375 0.125q0.390625 0 0.734375 -0.390625q0.34375 -0.390625 0.640625 -1.09375l-2.828125 -7.4375l1.75 0l1.875 5.234375l0.96875 -2.671875q0.234375 -0.71875 0.34375 -1.265625q0.125 -0.546875 0.125 -1.078125q0 -0.15625 0 -0.21875l1.703125 0zm-6.28125 8.25q0 0.03125 -0.03125 0.03125q-0.03125 0 -0.171875 -0.0625l0.03125 -0.0625l0.15625 0.078125l0.015625 0.015625zm-0.234375 0.015625q-0.0625 -0.046875 -0.0625 -0.0625q0 -0.015625 0.09375 0.015625l-0.03125 0.046875zm8.125 -8.265625l1.71875 0l0 0.921875q0.34375 -0.578125 0.828125 -0.828125q0.484375 -0.265625 1.09375 -0.265625q0.828125 0 1.515625 0.453125q0.703125 0.453125 1.109375 1.34375q0.421875 0.890625 0.421875 2.140625q0 1.28125 -0.421875 2.171875q-0.421875 0.875 -1.109375 1.328125q-0.6875 0.453125 -1.5 0.453125q-0.59375 0 -1.078125 -0.25q-0.46875 -0.265625 -0.78125 -0.8125l0 3.484375l-1.78125 0l-0.015625 -10.140625zm3.25 6.234375q0.46875 0 0.828125 -0.265625q0.375 -0.28125 0.59375 -0.859375q0.21875 -0.578125 0.21875 -1.4375q0 -1.0625 -0.375 -1.703125q-0.359375 -0.65625 -1.140625 -0.65625q-0.828125 0 -1.203125 0.6875q-0.375 0.671875 -0.375 1.828125q0 1.21875 0.390625 1.8125q0.390625 0.59375 1.0625 0.59375zm8.203125 1.5q-1.078125 0 -1.921875 -0.46875q-0.84375 -0.484375 -1.328125 -1.359375q-0.484375 -0.875 -0.484375 -2.078125q0 -1.203125 0.453125 -2.109375q0.453125 -0.90625 1.25 -1.390625q0.8125 -0.5 1.828125 -0.5q0.90625 0 1.625 0.421875q0.71875 0.421875 1.140625 1.25q0.421875 0.8125 0.421875 1.984375q0 0.1875 -0.03125 0.53125l-0.015625 0.21875l-4.890625 0q0.109375 1.015625 0.625 1.546875q0.53125 0.515625 1.265625 0.515625q0.515625 0 1.03125 -0.234375q0.53125 -0.25 0.859375 -0.671875l1.0 0.984375q-1.140625 1.359375 -2.828125 1.359375zm1.203125 -4.8125q0 -0.46875 -0.1875 -0.859375q-0.1875 -0.40625 -0.53125 -0.640625q-0.328125 -0.25 -0.78125 -0.25q-0.65625 0 -1.09375 0.484375q-0.421875 0.46875 -0.5 1.265625l3.09375 0zm13.5 4.546875l0 -8.421875l-2.703125 0l0 -1.546875l7.34375 0l0 1.546875l-2.8125 0l0 8.421875l-1.828125 0zm5.9375 -10.796875l1.921875 0l0 0.171875q-0.078125 0.09375 -0.109375 0.21875q-0.015625 0.109375 -0.015625 0.375l0 3.328125q0.390625 -0.4375 0.90625 -0.6875q0.53125 -0.25 1.046875 -0.25q1.203125 0 1.859375 0.75q0.671875 0.75 0.671875 2.359375l0 4.53125l-1.8125 0l0 -4.515625q0 -0.828125 -0.28125 -1.234375q-0.28125 -0.40625 -0.78125 -0.40625q-0.453125 0 -0.828125 0.234375q-0.359375 0.234375 -0.578125 0.65625q-0.203125 0.40625 -0.203125 0.9375l0 4.328125l-1.796875 0l0 -10.796875zm11.359375 11.0625q-1.078125 0 -1.921875 -0.46875q-0.84375 -0.484375 -1.328125 -1.359375q-0.484375 -0.875 -0.484375 -2.078125q0 -1.203125 0.453125 -2.109375q0.453125 -0.90625 1.25 -1.390625q0.8125 -0.5 1.828125 -0.5q0.90625 0 1.625 0.421875q0.71875 0.421875 1.140625 1.25q0.421875 0.8125 0.421875 1.984375q0 0.1875 -0.03125 0.53125l-0.015625 0.21875l-4.890625 0q0.109375 1.015625 0.625 1.546875q0.53125 0.515625 1.265625 0.515625q0.515625 0 1.03125 -0.234375q0.53125 -0.25 0.859375 -0.671875l1.0 0.984375q-1.140625 1.359375 -2.828125 1.359375zm1.203125 -4.8125q0 -0.46875 -0.1875 -0.859375q-0.1875 -0.40625 -0.53125 -0.640625q-0.328125 -0.25 -0.78125 -0.25q-0.65625 0 -1.09375 0.484375q-0.421875 0.46875 -0.5 1.265625l3.09375 0zm9.171875 -0.65625l0 -0.015625q-0.296875 -0.484375 -0.640625 -0.6875q-0.34375 -0.203125 -0.8125 -0.203125q-0.5625 0 -1.03125 0.265625q-0.453125 0.265625 -0.71875 0.765625q-0.265625 0.5 -0.265625 1.171875l0 3.90625l-1.8125 0l0 -7.46875l1.84375 0l0 1.0625q0.296875 -0.578125 0.875 -0.90625q0.578125 -0.328125 1.28125 -0.328125q0.5625 0 1.109375 0.21875q0.546875 0.203125 0.984375 0.609375l-0.8125 1.609375zm-0.21875 0q0 0 0 0q0.03125 0 0.078125 0.03125q0.0625 0.03125 0.09375 0.046875l0 0.03125l-0.171875 -0.078125l0 -0.03125zm0.21875 0q0.046875 0.078125 0.046875 0.109375q0 0 -0.015625 0q-0.015625 0 -0.078125 -0.03125l0.046875 -0.078125zm1.8125 -2.359375l1.53125 0l0 0.46875q0.265625 -0.34375 0.609375 -0.515625q0.34375 -0.1875 0.703125 -0.1875q0.390625 0 0.734375 0.21875q0.34375 0.203125 0.546875 0.671875q0.296875 -0.453125 0.640625 -0.671875q0.359375 -0.21875 0.875 -0.21875q0.828125 0 1.15625 0.5625q0.34375 0.546875 0.34375 1.703125l0 5.53125l-1.671875 0l0 -5.21875q0 -0.625 -0.109375 -0.890625q-0.109375 -0.28125 -0.359375 -0.28125q-0.609375 0 -0.609375 1.46875l0 4.921875l-1.65625 0l0 -5.140625q0 -0.71875 -0.125 -0.984375q-0.125 -0.265625 -0.34375 -0.265625q-0.3125 0 -0.484375 0.328125q-0.171875 0.3125 -0.171875 1.09375l0 4.96875l-1.609375 0l0 -7.5625zm11.5 7.828125q-0.984375 0 -1.796875 -0.515625q-0.8125 -0.515625 -1.28125 -1.421875q-0.46875 -0.90625 -0.46875 -2.0625q0 -1.078125 0.46875 -1.96875q0.484375 -0.90625 1.296875 -1.421875q0.8125 -0.515625 1.78125 -0.515625q0.96875 0 1.78125 0.515625q0.828125 0.515625 1.296875 1.421875q0.484375 0.890625 0.484375 1.96875q0 1.15625 -0.46875 2.0625q-0.46875 0.90625 -1.28125 1.421875q-0.8125 0.515625 -1.8125 0.515625zm0 -1.453125q0.53125 0 0.921875 -0.3125q0.40625 -0.328125 0.609375 -0.890625q0.21875 -0.578125 0.21875 -1.34375q0 -0.765625 -0.21875 -1.3125q-0.203125 -0.5625 -0.609375 -0.859375q-0.390625 -0.296875 -0.921875 -0.296875q-0.5 0 -0.890625 0.296875q-0.390625 0.296875 -0.609375 0.859375q-0.203125 0.5625 -0.203125 1.3125q0 0.765625 0.203125 1.34375q0.203125 0.578125 0.578125 0.890625q0.390625 0.3125 0.921875 0.3125zm8.375 -0.09375q0.5 0 0.984375 -0.234375q0.5 -0.234375 0.921875 -0.765625l1.03125 1.203125q-0.59375 0.6875 -1.359375 1.015625q-0.75 0.328125 -1.578125 0.328125q-1.09375 0 -1.953125 -0.515625q-0.859375 -0.515625 -1.34375 -1.40625q-0.484375 -0.890625 -0.484375 -2.015625q0 -1.109375 0.484375 -2.015625q0.484375 -0.90625 1.34375 -1.421875q0.859375 -0.53125 1.96875 -0.53125q0.921875 0 1.71875 0.375q0.8125 0.375 1.265625 1.0625l-1.0 1.171875l0 0.015625q-0.015625 0 -0.015625 0q0 0 0 0q-0.328125 -0.578125 -0.796875 -0.84375q-0.46875 -0.28125 -1.171875 -0.28125q-0.546875 0 -1.0 0.3125q-0.453125 0.3125 -0.71875 0.890625q-0.25 0.5625 -0.25 1.296875q0 0.71875 0.234375 1.25q0.25 0.53125 0.6875 0.828125q0.453125 0.28125 1.03125 0.28125zm1.78125 -3.765625q0 -0.015625 0.015625 -0.015625q0.046875 0 0.15625 0.109375l-0.03125 0.03125l-0.140625 -0.109375l0 -0.015625zm0.21875 0.03125q0.046875 0.09375 0.046875 0.109375q0 0.015625 -0.015625 0.015625q-0.015625 0 -0.078125 -0.0625l0.046875 -0.0625zm5.625 5.28125q-0.984375 0 -1.796875 -0.515625q-0.8125 -0.515625 -1.28125 -1.421875q-0.46875 -0.90625 -0.46875 -2.0625q0 -1.078125 0.46875 -1.96875q0.484375 -0.90625 1.296875 -1.421875q0.8125 -0.515625 1.78125 -0.515625q0.96881104 0 1.781311 0.515625q0.828125 0.515625 1.296875 1.421875q0.484375 0.890625 0.484375 1.96875q0 1.15625 -0.46875 2.0625q-0.46875 0.90625 -1.28125 1.421875q-0.8125 0.515625 -1.812561 0.515625zm0 -1.453125q0.53125 0 0.92193604 -0.3125q0.40625 -0.328125 0.609375 -0.890625q0.21875 -0.578125 0.21875 -1.34375q0 -0.765625 -0.21875 -1.3125q-0.203125 -0.5625 -0.609375 -0.859375q-0.39068604 -0.296875 -0.92193604 -0.296875q-0.5 0 -0.890625 0.296875q-0.390625 0.296875 -0.609375 0.859375q-0.203125 0.5625 -0.203125 1.3125q0 0.765625 0.203125 1.34375q0.203125 0.578125 0.578125 0.890625q0.390625 0.3125 0.921875 0.3125zm7.281311 1.515625q-1.203125 0 -1.84375 -0.75q-0.640625 -0.75 -0.640625 -2.375l0 -4.671875l1.765625 0l0 4.671875q0 0.828125 0.28125 1.234375q0.296875 0.40625 0.796875 0.40625q0.4375 0 0.796875 -0.234375q0.375 -0.234375 0.578125 -0.65625q0.21875 -0.421875 0.21875 -0.953125l0 -4.46875l1.8125 0l0 6.25q0 0.46875 0.015625 0.71875q0.03125 0.25 0.140625 0.5l-1.75 0q-0.09375 -0.203125 -0.125 -0.390625q-0.03125 -0.1875 -0.03125 -0.484375q-0.3125 0.546875 -0.890625 0.875q-0.578125 0.328125 -1.125 0.328125zm5.578125 -7.796875l1.71875 0l0 0.921875q0.34375 -0.578125 0.828125 -0.828125q0.484375 -0.265625 1.09375 -0.265625q0.828125 0 1.515625 0.453125q0.703125 0.453125 1.109375 1.34375q0.421875 0.890625 0.421875 2.140625q0 1.28125 -0.421875 2.171875q-0.421875 0.875 -1.109375 1.328125q-0.6875 0.453125 -1.5 0.453125q-0.59375 0 -1.078125 -0.25q-0.46875 -0.265625 -0.78125 -0.8125l0 3.484375l-1.78125 0l-0.015625 -10.140625zm3.25 6.234375q0.46875 0 0.828125 -0.265625q0.375 -0.28125 0.59375 -0.859375q0.21875 -0.578125 0.21875 -1.4375q0 -1.0625 -0.375 -1.703125q-0.359375 -0.65625 -1.140625 -0.65625q-0.828125 0 -1.203125 0.6875q-0.375 0.671875 -0.375 1.828125q0 1.21875 0.390625 1.8125q0.390625 0.59375 1.0625 0.59375zm4.953125 1.234375l0 -1.390625l2.046875 0l0 -8.015625l-1.953125 0l0 -1.390625l3.765625 0l0 9.40625l2.03125 0l0 1.390625l-5.890625 0zm11.25 0.265625q-1.078125 0 -1.921875 -0.46875q-0.84375 -0.484375 -1.328125 -1.359375q-0.484375 -0.875 -0.484375 -2.078125q0 -1.203125 0.453125 -2.109375q0.453125 -0.90625 1.25 -1.390625q0.8125 -0.5 1.828125 -0.5q0.90625 0 1.625 0.421875q0.71875 0.421875 1.140625 1.25q0.421875 0.8125 0.421875 1.984375q0 0.1875 -0.03125 0.53125l-0.015625 0.21875l-4.890625 0q0.109375 1.015625 0.625 1.546875q0.53125 0.515625 1.265625 0.515625q0.515625 0 1.03125 -0.234375q0.53125 -0.25 0.859375 -0.671875l1.0 0.984375q-1.140625 1.359375 -2.828125 1.359375zm1.203125 -4.8125q0 -0.46875 -0.1875 -0.859375q-0.1875 -0.40625 -0.53125 -0.640625q-0.328125 -0.25 -0.78125 -0.25q-0.65625 0 -1.09375 0.484375q-0.421875 0.46875 -0.5 1.265625l3.09375 0z" fill-rule="nonzero"/><path fill="#000000" fill-opacity="0.0" d="m912.2853 61.41191l45.541504 0l0 133.41733l-45.478516 0" fill-rule="evenodd"/><path stroke="#ff0000" stroke-width="3.0" stroke-linejoin="round" stroke-linecap="butt" d="m923.6553 61.41191l34.17151 0l0 133.41733l-45.478516 0" fill-rule="evenodd"/><path fill="#ff0000" stroke="#ff0000" stroke-width="3.0" stroke-linecap="butt" d="m923.6553 66.34691l-9.869995 0l0 -9.869999l9.869995 0l0 9.869999z" fill-rule="nonzero"/><path fill="#000000" fill-opacity="0.0" d="m912.2853 92.11188l25.000793 0l0 73.40793l-224.72076 0l0 29.300735l25.011292 0" fill-rule="evenodd"/><path stroke="#0000ff" stroke-width="3.0" stroke-linejoin="round" stroke-linecap="butt" d="m923.6553 92.11188l13.630798 0l0 73.40793l-224.72076 0l0 29.300735l25.011292 0" fill-rule="evenodd"/><path fill="#0000ff" stroke="#0000ff" stroke-width="3.0" stroke-linecap="butt" d="m923.6553 97.046875l-9.869995 0l0 -9.869995l9.869995 0l0 9.869995z" fill-rule="nonzero"/><path fill="#073763" d="m381.84274 75.17716l0 474.26773l-324.31494 0l0 -474.26773z" fill-rule="evenodd"/><path stroke="#000000" stroke-width="1.0" stroke-linejoin="round" stroke-linecap="butt" d="m381.84274 75.17716l0 474.26773l-324.31494 0l0 -474.26773z" fill-rule="evenodd"/><path fill="#ffffff" d="m207.96526 237.49837l5.828125 -2.015625l0 -6.4375l-5.828125 -2.015625l0 -2.203125l20.28125 7.359375l0 0.25l-20.28125 7.359375l0 -2.296875zm7.546875 -7.84375l0 5.25l7.625 -2.625l-7.625 -2.625zm4.03125 24.28128l-0.03125 0q0.875 -0.921875 1.15625 -1.546875q0.28125 -0.625 0.28125 -1.453125q0 -1.15625 -0.578125 -2.1875q-0.5625 -1.015625 -1.734375 -1.65625q-1.171875 -0.640625 -2.921875 -0.640625l-7.78125 0l0 -2.328125l14.65625 0l0 2.390625l-2.6875 -0.0625q1.4375 0.609375 2.234375 1.875q0.796875 1.265625 0.796875 2.765625q0 2.34375 -1.59375 3.875l-1.796875 -1.03125zm-0.03125 0q-0.1875 0.234375 -0.15625 0.109375q0.03125 -0.109375 0.0625 -0.171875l0.09375 0.0625zm-0.09375 -0.34375q0.09375 0 0.078125 0.09375q-0.015625 0.09375 -0.078125 0.1875l-0.15625 -0.0625l0.125 -0.21875l0.03125 0zm-11.765625 10.20314q0 -1.5625 0.875 -2.9375q0.875 -1.375 2.625 -2.25q1.765625 -0.859375 4.265625 -0.859375q2.53125 0 4.21875 0.890625q1.703125 0.90625 2.515625 2.3125q0.828125 1.40625 0.828125 2.96875q0 1.484375 -0.6875 2.578125q-0.671875 1.109375 -1.84375 1.6875l8.796875 0l0 2.421875l-0.21875 0q-0.203125 -0.1875 -0.421875 -0.234375q-0.21875 -0.046875 -0.765625 -0.046875l-17.609375 0.03125q-0.765625 0 -1.265625 0.046875q-0.484375 0.046875 -1.0 0.28125l0 -2.28125q0.515625 -0.21875 1.0 -0.265625q0.5 -0.046875 1.265625 -0.046875q-1.203125 -0.703125 -1.890625 -1.8125q-0.6875 -1.109375 -0.6875 -2.484375zm2.015625 0.359375q0 1.984375 1.5625 2.90625q1.5625 0.9375 4.125 0.9375q2.59375 0 4.15625 -1.015625q1.578125 -1.015625 1.578125 -3.03125q0 -1.90625 -1.4375 -2.9375q-1.421875 -1.015625 -3.875 -1.015625q-2.828125 0 -4.46875 1.0625q-1.640625 1.078125 -1.640625 3.09375zm-2.0625 15.2344055q0 -2.3125 1.71875 -3.6875q1.71875 -1.375 5.109375 -1.34375l8.15625 0.03125l0 2.234375l-8.15625 0q-2.625 0 -3.796875 0.90625q-1.171875 0.921875 -1.171875 2.421875q0 1.671875 1.296875 2.796875q1.296875 1.140625 3.765625 1.140625l8.0625 0l0 2.25l-12.359375 0q-0.765625 0 -1.265625 0.046875q-0.484375 0.046875 -1.0 0.265625l0 -2.203125q0.484375 -0.21875 0.984375 -0.28125q0.515625 -0.046875 1.25 -0.046875q-1.203125 -0.703125 -1.90625 -1.90625q-0.6875 -1.1875 -0.6875 -2.625zm0.359375 12.1250305l1.859375 0l0 3.734375l10.90625 0l0 -3.546875l1.859375 0l0 5.859375l-12.765625 0l0 3.421875l-1.859375 0l0 -9.46875zm17.703125 4.765625q0 -0.671875 0.46875 -1.15625q0.484375 -0.46875 1.15625 -0.46875q0.703125 0 1.171875 0.453125q0.484375 0.46875 0.484375 1.171875q0 0.671875 -0.5 1.171875q-0.484375 0.5 -1.15625 0.5q-0.671875 0 -1.15625 -0.5q-0.46875 -0.5 -0.46875 -1.171875zm-3.078125 10.3281555l0 2.25l-2.59375 0q1.34375 0.859375 2.140625 2.171875q0.796875 1.3125 0.796875 2.78125q0 1.953125 -1.484375 3.125q-1.484375 1.171875 -4.625 1.171875l-8.859375 0l0 -2.25l8.796875 0q2.171875 0 3.15625 -0.734375q1.0 -0.734375 1.0 -1.953125q0 -0.984375 -0.578125 -2.0q-0.5625 -1.0 -1.609375 -1.65625q-1.03125 -0.65625 -2.34375 -0.65625l-8.421875 0l0 -2.25l14.625 0zm-14.875 21.703156q0 -1.953125 0.953125 -3.5q0.953125 -1.53125 2.6875 -2.390625q1.734375 -0.859375 3.9375 -0.859375q2.203125 0 3.921875 0.859375q1.734375 0.859375 2.703125 2.390625q0.984375 1.546875 0.984375 3.5q0 1.953125 -0.984375 3.484375q-0.96875 1.546875 -2.703125 2.40625q-1.71875 0.859375 -3.921875 0.859375q-2.203125 0 -3.9375 -0.859375q-1.734375 -0.859375 -2.6875 -2.40625q-0.953125 -1.53125 -0.953125 -3.484375zm1.90625 0q0 1.25 0.734375 2.21875q0.75 0.984375 2.046875 1.53125q1.296875 0.5625 2.921875 0.5625q2.5 0 4.078125 -1.21875q1.59375 -1.203125 1.59375 -3.09375q0 -1.890625 -1.59375 -3.109375q-1.578125 -1.203125 -4.078125 -1.203125q-1.625 0 -2.921875 0.546875q-1.296875 0.5625 -2.046875 1.53125q-0.734375 0.984375 -0.734375 2.234375zm-2.015625 32.03131q0 -3.171875 1.890625 -4.8125q1.890625 -1.625 5.34375 -1.625l13.0625 0l0 2.5l-0.21875 0q-0.203125 -0.1875 -0.421875 -0.234375q-0.21875 -0.046875 -0.765625 -0.046875l-11.6875 0q-2.5625 0 -3.9375 0.984375q-1.375 1.0 -1.375 3.265625q0 2.3125 1.375 3.3125q1.375 1.015625 4.03125 1.015625l13.0 0l0 2.140625l-12.96875 0q-3.671875 0 -5.5 -1.71875q-1.828125 -1.703125 -1.828125 -4.78125zm14.984375 10.2656555l0 2.25l-2.59375 0q1.34375 0.859375 2.140625 2.171875q0.796875 1.3125 0.796875 2.78125q0 1.953125 -1.484375 3.125q-1.484375 1.171875 -4.625 1.171875l-8.859375 0l0 -2.25l8.796875 0q2.171875 0 3.15625 -0.734375q1.0 -0.734375 1.0 -1.953125q0 -0.984375 -0.578125 -2.0q-0.5625 -1.0 -1.609375 -1.65625q-1.03125 -0.65625 -2.34375 -0.65625l-8.421875 0l0 -2.25l14.625 0zm-14.875 21.703156q0 -1.953125 0.953125 -3.5q0.953125 -1.53125 2.6875 -2.390625q1.734375 -0.859375 3.9375 -0.859375q2.203125 0 3.921875 0.859375q1.734375 0.859375 2.703125 2.390625q0.984375 1.546875 0.984375 3.5q0 1.953125 -0.984375 3.484375q-0.96875 1.546875 -2.703125 2.40625q-1.71875 0.859375 -3.921875 0.859375q-2.203125 0 -3.9375 -0.859375q-1.734375 -0.859375 -2.6875 -2.40625q-0.953125 -1.53125 -0.953125 -3.484375zm1.90625 0q0 1.25 0.734375 2.21875q0.75 0.984375 2.046875 1.53125q1.296875 0.5625 2.921875 0.5625q2.5 0 4.078125 -1.21875q1.59375 -1.203125 1.59375 -3.09375q0 -1.890625 -1.59375 -3.109375q-1.578125 -1.203125 -4.078125 -1.203125q-1.625 0 -2.921875 0.546875q-1.296875 0.5625 -2.046875 1.53125q-0.734375 0.984375 -0.734375 2.234375z" fill-rule="nonzero"/><path fill="#b7b7b7" d="m318.07486 75.17716l0 69.75318l-59.293762 0l0 -69.75318z" fill-rule="evenodd"/><path stroke="#000000" stroke-width="1.0" stroke-linejoin="round" stroke-linecap="butt" d="m318.07486 75.17716l0 69.75318l-59.293762 0l0 -69.75318z" fill-rule="evenodd"/><path fill="#000000" d="m281.24234 100.702194q0 -1.921875 1.15625 -2.9375q1.15625 -1.015625 3.21875 -1.015625l7.515625 0l0 2.234375l-0.203125 0q-0.109375 -0.09375 -0.25 -0.125q-0.125 -0.03125 -0.4375 -0.015625l-6.640625 0q-1.28125 0 -1.953125 0.421875q-0.671875 0.4375 -0.671875 1.46875q0 1.046875 0.671875 1.484375q0.6875 0.4375 2.0 0.4375l7.484375 0l0 2.046875l-7.46875 0q-2.203125 0 -3.3125 -1.0625q-1.109375 -1.0625 -1.109375 -2.9375zm7.0 10.21875q-0.5625 1.1875 -1.09375 1.84375q-0.515625 0.65625 -1.09375 0.921875q-0.578125 0.28125 -1.34375 0.28125q-0.921875 0 -1.734375 -0.4375q-0.796875 -0.421875 -1.3125 -1.34375q-0.5 -0.921875 -0.5 -2.34375q0 -2.265625 1.625 -3.9375l1.59375 0.921875l0.015625 0l-0.015625 0.015625q-1.421875 1.359375 -1.421875 3.171875q0 0.875 0.40625 1.34375q0.421875 0.484375 1.234375 0.484375q0.40625 0 0.734375 -0.203125q0.34375 -0.203125 0.671875 -0.703125q0.34375 -0.484375 0.734375 -1.359375q0.703125 -1.625 1.578125 -2.359375q0.875 -0.71875 2.03125 -0.71875q0.84375 0 1.546875 0.46875q0.703125 0.46875 1.109375 1.28125q0.421875 0.828125 0.421875 1.859375q0 1.15625 -0.390625 1.984375q-0.375 0.84375 -1.171875 1.609375l-1.453125 -1.046875l-0.03125 0q0 -0.015625 0 -0.015625q0.015625 0 0.015625 0q0.6875 -0.421875 1.0 -1.09375q0.3125 -0.65625 0.3125 -1.453125q0 -0.515625 -0.1875 -0.890625q-0.171875 -0.359375 -0.46875 -0.546875q-0.28125 -0.1875 -0.625 -0.1875q-0.40625 0 -0.734375 0.203125q-0.3125 0.21875 -0.640625 0.734375q-0.328125 0.53125 -0.8125 1.515625zm2.171875 1.46875q0.015625 0 0.015625 0.015625q0 0.03125 -0.046875 0.078125q-0.03125 0.0625 -0.0625 0.109375l-0.046875 -0.03125l0.109375 -0.171875l0.03125 0zm-0.03125 0.265625q-0.09375 0.0625 -0.125 0.0625q0 0 0 -0.015625q0 -0.03125 0.0625 -0.109375l0.0625 0.0625zm-6.0 -5.5625q-0.015625 0 -0.015625 -0.015625q0 -0.03125 0.03125 -0.109375q0.046875 -0.0625 0.0625 -0.109375l0.0625 0.046875l-0.109375 0.171875l-0.03125 0.015625zm0.015625 -0.265625q0.0625 -0.078125 0.09375 -0.078125q0 0 0 0q0.015625 0 0.015625 0.015625l-0.046875 0.09375l-0.0625 -0.03125zm8.734375 8.640625l0 3.515625q0 2.046875 -0.8125 3.046875q-0.796875 1.015625 -2.1875 1.015625q-0.703125 0 -1.375 -0.390625q-0.65625 -0.375 -1.015625 -1.015625q-0.265625 0.53125 -0.71875 0.953125q-0.4375 0.4375 -1.0 0.671875q-0.546875 0.25 -1.09375 0.25q-1.59375 0 -2.515625 -1.140625q-0.90625 -1.140625 -0.90625 -3.40625l0 -3.5l11.625 0zm-4.53125 3.359375q0 1.125 0.375 1.625q0.390625 0.5 1.046875 0.5q0.359375 0 0.671875 -0.21875q0.328125 -0.21875 0.515625 -0.65625q0.1875 -0.4375 0.1875 -1.0625l0 -1.46875l-2.796875 0l0 1.28125zm-5.3125 0.34375q0 1.046875 0.375 1.59375q0.390625 0.5625 1.3125 0.5625q0.875 0 1.390625 -0.59375q0.53125 -0.59375 0.53125 -1.859375l0 -1.328125l-3.609375 0l0 1.625z" fill-rule="nonzero"/><path fill="#b7b7b7" d="m381.84274 492.69675l0 28.379608l-30.699951 0l0 -28.379608z" fill-rule="evenodd"/><path stroke="#000000" stroke-width="1.0" stroke-linejoin="round" stroke-linecap="butt" d="m381.84274 492.69675l0 28.379608l-30.699951 0l0 -28.379608z" fill-rule="evenodd"/><path fill="#000000" d="m359.57275 506.12872l9.25 0l-0.59375 -2.0l1.265625 -0.5l1.703125 3.15625l0 1.390625l-11.625 0l0 -2.046875z" fill-rule="nonzero"/><path fill="#b7b7b7" d="m381.84274 521.07635l0 28.379639l-30.699951 0l0 -28.379639z" fill-rule="evenodd"/><path stroke="#000000" stroke-width="1.0" stroke-linejoin="round" stroke-linecap="butt" d="m381.84274 521.07635l0 28.379639l-30.699951 0l0 -28.379639z" fill-rule="evenodd"/><path fill="#000000" d="m371.4165 535.274q0 1.265625 -0.71875 2.15625q-0.71875 0.90625 -2.09375 1.375q-1.375 0.484375 -3.28125 0.484375q-1.921875 0 -3.296875 -0.484375q-1.359375 -0.46875 -2.09375 -1.375q-0.71875 -0.890625 -0.71875 -2.15625q0 -1.28125 0.71875 -2.1875q0.734375 -0.890625 2.09375 -1.375q1.375 -0.46875 3.296875 -0.46875q1.90625 0 3.28125 0.46875q1.375 0.484375 2.09375 1.375q0.71875 0.90625 0.71875 2.1875zm-1.671875 0q0 -0.640625 -0.53125 -1.109375q-0.515625 -0.453125 -1.515625 -0.703125q-1.0 -0.234375 -2.375 -0.234375q-0.71875 0 -1.390625 0.078125l4.265625 3.59375q0.75 -0.25 1.140625 -0.671875q0.40625 -0.421875 0.40625 -0.953125zm-8.84375 0q0 0.625 0.515625 1.078125q0.53125 0.46875 1.515625 0.703125q1.0 0.25 2.390625 0.25q0.8125 0 1.484375 -0.09375l-4.296875 -3.609375q-0.78125 0.25 -1.203125 0.671875q-0.40625 0.421875 -0.40625 1.0z" fill-rule="nonzero"/><path fill="#b7b7b7" d="m381.84274 435.9375l0 28.379608l-30.699951 0l0 -28.379608z" fill-rule="evenodd"/><path stroke="#000000" stroke-width="1.0" stroke-linejoin="round" stroke-linecap="butt" d="m381.84274 435.9375l0 28.379608l-30.699951 0l0 -28.379608z" fill-rule="evenodd"/><path fill="#000000" d="m365.76025 451.79135q-0.28125 0.796875 -1.03125 1.359375q-0.734375 0.5625 -1.890625 0.5625q-1.015625 0 -1.84375 -0.46875q-0.828125 -0.46875 -1.3125 -1.359375q-0.46875 -0.890625 -0.46875 -2.09375q0 -2.390625 1.578125 -3.640625l1.734375 0.875l0 0l-0.015625 0.015625q-0.78125 0.40625 -1.140625 1.0625q-0.34375 0.671875 -0.34375 1.703125q0 0.859375 0.515625 1.328125q0.515625 0.484375 1.375 0.484375q0.9375 0 1.390625 -0.53125q0.46875 -0.515625 0.46875 -1.765625q0 -0.4375 -0.0625 -0.96875l1.6875 0q0 0.140625 0 0.390625q0 1.4375 0.453125 2.0q0.46875 0.5625 1.296875 0.5625q0.671875 0 1.09375 -0.40625q0.421875 -0.390625 0.421875 -1.109375q0 -0.625 -0.21875 -1.171875q-0.21875 -0.53125 -0.75 -1.109375l1.203125 -1.171875q0.78125 0.671875 1.171875 1.546875q0.390625 0.890625 0.390625 1.890625q0 1.0625 -0.40625 1.875q-0.40625 0.828125 -1.109375 1.28125q-0.703125 0.46875 -1.578125 0.46875q-0.9375 0 -1.625 -0.484375q-0.671875 -0.46875 -0.984375 -1.125zm-3.234375 -4.765625q0.078125 -0.03125 0.125 -0.03125q0.015625 0 0.015625 0.015625q0 0.015625 -0.03125 0.078125l-0.109375 -0.0625zm0.03125 0.265625q-0.015625 0 -0.015625 0q0 -0.03125 0.03125 -0.109375q0.046875 -0.0625 0.0625 -0.09375l0.03125 0l-0.09375 0.203125l-0.015625 0z" fill-rule="nonzero"/><path fill="#b7b7b7" d="m381.84274 464.3171l0 28.379639l-30.699951 0l0 -28.379639z" fill-rule="evenodd"/><path stroke="#000000" stroke-width="1.0" stroke-linejoin="round" stroke-linecap="butt" d="m381.84274 464.3171l0 28.379639l-30.699951 0l0 -28.379639z" fill-rule="evenodd"/><path fill="#000000" d="m361.104 474.90536q2.15625 2.25 3.1875 3.234375q1.03125 0.984375 1.921875 1.484375q0.890625 0.515625 1.8125 0.515625q0.734375 0 1.171875 -0.46875q0.4375 -0.453125 0.4375 -1.234375q0 -0.46875 -0.109375 -0.90625q-0.109375 -0.421875 -0.265625 -0.71875q-0.15625 -0.296875 -0.296875 -0.359375q-0.65625 -0.375 -0.71875 -0.375q-0.015625 0 -0.015625 0.015625q0.015625 0.015625 0.046875 0.046875q0.03125 0.046875 0.03125 0.078125q0.015625 0.03125 -0.03125 0.03125l-0.1875 -0.09375l0.078125 -0.140625l1.046875 -1.390625q1.09375 0.671875 1.671875 1.65625q0.578125 0.984375 0.578125 2.1875q0 1.046875 -0.4375 1.875q-0.4375 0.828125 -1.21875 1.296875q-0.765625 0.46875 -1.765625 0.46875q-0.984375 0 -1.90625 -0.46875q-0.90625 -0.46875 -1.765625 -1.234375q-0.859375 -0.765625 -2.328125 -2.234375l-0.734375 -0.75l0 3.796875q0 0.296875 0.03125 0.4375q0.03125 0.15625 0.125 0.265625l0 0.203125l-1.890625 0l0 -7.21875l1.53125 0z" fill-rule="nonzero"/><path fill="#b7b7b7" d="m381.84274 379.17825l0 28.379608l-30.699951 0l0 -28.379608z" fill-rule="evenodd"/><path stroke="#000000" stroke-width="1.0" stroke-linejoin="round" stroke-linecap="butt" d="m381.84274 379.17825l0 28.379608l-30.699951 0l0 -28.379608z" fill-rule="evenodd"/><path fill="#000000" d="m367.36963 393.67276q0 1.09375 -0.484375 1.90625q-0.484375 0.828125 -1.390625 1.265625q-0.90625 0.453125 -2.171875 0.453125q-1.203125 0 -2.140625 -0.46875q-0.921875 -0.46875 -1.453125 -1.34375q-0.515625 -0.875 -0.515625 -2.046875q0 -2.5625 2.203125 -3.734375l1.1875 1.546875l0.015625 0.015625l-0.015625 0q-0.484375 0.25 -0.8125 0.5q-0.3125 0.265625 -0.515625 0.65625q-0.203125 0.390625 -0.203125 0.953125q0 0.53125 0.25 0.953125q0.265625 0.421875 0.765625 0.65625q0.515625 0.25 1.25 0.25q1.09375 0 1.6875 -0.5q0.609375 -0.484375 0.609375 -1.296875q0 -0.546875 -0.265625 -0.984375q-0.265625 -0.421875 -0.84375 -0.84375l0.5625 -1.34375l6.109375 0.4375l0 6.25l-1.78125 0l0 -4.421875l-2.25 -0.15625q0.203125 0.6875 0.203125 1.296875zm-4.75 -2.40625q0.078125 -0.046875 0.109375 -0.046875q0.015625 0 -0.078125 0.078125l-0.03125 -0.03125zm-0.09375 0.25q-0.03125 0 -0.03125 -0.03125q0 -0.03125 0.0625 -0.109375q0.078125 -0.0625 0.09375 -0.078125l0.0625 0.078125l-0.1875 0.140625z" fill-rule="nonzero"/><path fill="#b7b7b7" d="m381.84274 407.55786l0 28.379639l-30.699951 0l0 -28.379639z" fill-rule="evenodd"/><path stroke="#000000" stroke-width="1.0" stroke-linejoin="round" stroke-linecap="butt" d="m381.84274 407.55786l0 28.379639l-30.699951 0l0 -28.379639z" fill-rule="evenodd"/><path fill="#000000" d="m359.57275 422.16174l2.875 0l0 -4.4375l1.3125 0l7.4375 5.03125l0 1.5l-7.015625 0l0 1.5625l-1.765625 0l0 -1.5625l-2.84375 0l0 -2.09375zm4.5625 -2.28125l0 2.34375l3.46875 0l-3.46875 -2.34375z" fill-rule="nonzero"/><path fill="#b7b7b7" d="m381.84274 322.419l0 28.379608l-30.699951 0l0 -28.379608z" fill-rule="evenodd"/><path stroke="#000000" stroke-width="1.0" stroke-linejoin="round" stroke-linecap="butt" d="m381.84274 322.419l0 28.379608l-30.699951 0l0 -28.379608z" fill-rule="evenodd"/><path fill="#000000" d="m359.57275 334.06976q2.875 0.96875 5.25 1.828125q2.375 0.859375 4.546875 1.765625l0 -4.484375l1.828125 0l0 6.984375l-1.0625 0q-4.59375 -2.0 -10.5625 -3.84375l0 -2.25z" fill-rule="nonzero"/><path fill="#b7b7b7" d="m381.84274 350.7986l0 28.379639l-30.699951 0l0 -28.379639z" fill-rule="evenodd"/><path stroke="#000000" stroke-width="1.0" stroke-linejoin="round" stroke-linecap="butt" d="m381.84274 350.7986l0 28.379639l-30.699951 0l0 -28.379639z" fill-rule="evenodd"/><path fill="#000000" d="m367.32275 365.29312q0 0.96875 -0.515625 1.765625q-0.515625 0.796875 -1.421875 1.265625q-0.90625 0.46875 -2.046875 0.46875q-1.140625 0 -2.09375 -0.484375q-0.9375 -0.484375 -1.484375 -1.328125q-0.546875 -0.828125 -0.546875 -1.828125q0 -1.1875 0.734375 -2.078125q0.734375 -0.875 2.015625 -1.34375q1.296875 -0.453125 2.96875 -0.453125q1.984375 0 3.453125 0.53125q1.484375 0.546875 2.265625 1.53125q0.796875 0.984375 0.796875 2.265625q0 0.78125 -0.359375 1.53125q-0.34375 0.75 -1.015625 1.390625l-1.390625 -1.3125l-0.015625 0l0.15625 -0.125q0.3125 -0.25 0.46875 -0.421875q0.15625 -0.15625 0.25 -0.421875q0.109375 -0.25 0.109375 -0.640625q0 -0.484375 -0.328125 -0.953125q-0.3125 -0.46875 -1.03125 -0.828125q-0.71875 -0.34375 -1.84375 -0.453125q0.359375 0.375 0.609375 0.890625q0.265625 0.53125 0.265625 1.03125zm1.390625 1.65625q0.03125 0 0.03125 0.03125q0 0.046875 -0.109375 0.1875l-0.078125 -0.0625l0.15625 -0.15625l0 0zm-0.046875 0.265625q-0.078125 0.078125 -0.109375 0.078125q0 0 0.078125 -0.125l0.03125 0.046875zm-7.53125 -2.015625q0 0.421875 0.265625 0.765625q0.265625 0.359375 0.75 0.546875q0.5 0.203125 1.1875 0.203125q0.703125 0 1.171875 -0.234375q0.484375 -0.21875 0.71875 -0.578125q0.234375 -0.34375 0.234375 -0.734375q0 -0.5 -0.3125 -0.984375q-0.296875 -0.46875 -0.8125 -0.78125q-0.96875 0 -1.703125 0.234375q-0.71875 0.234375 -1.109375 0.640625q-0.390625 0.40625 -0.390625 0.921875z" fill-rule="nonzero"/><path fill="#b7b7b7" d="m381.84274 265.65976l0 28.379608l-30.699951 0l0 -28.379608z" fill-rule="evenodd"/><path stroke="#000000" stroke-width="1.0" stroke-linejoin="round" stroke-linecap="butt" d="m381.84274 265.65976l0 28.379608l-30.699951 0l0 -28.379608z" fill-rule="evenodd"/><path fill="#000000" d="m371.44775 279.88864q0 1.765625 -1.421875 2.671875q-1.421875 0.921875 -4.296875 0.921875q-6.515625 0 -6.515625 -3.984375q0 -0.921875 0.359375 -1.828125q0.34375 -0.90625 1.03125 -1.625l1.40625 1.25l0 0.015625l-0.015625 0.015625q-0.484375 0.484375 -0.703125 0.96875q-0.203125 0.5 -0.203125 1.09375q0 0.71875 0.3125 1.140625q0.3125 0.421875 0.984375 0.625q0.671875 0.203125 1.859375 0.265625q-0.90625 -0.828125 -0.90625 -1.96875q0 -0.875 0.515625 -1.6875q0.53125 -0.796875 1.453125 -1.296875q0.921875 -0.5 2.0625 -0.5q1.125 0 2.0625 0.5q0.9375 0.5 1.46875 1.390625q0.546875 0.90625 0.546875 2.03125zm-6.265625 -0.140625q0 0.65625 0.328125 1.03125q0.34375 0.375 1.0 0.6875q1.21875 -0.015625 1.875 -0.203125q0.671875 -0.171875 0.921875 -0.5q0.265625 -0.328125 0.265625 -0.84375q0 -0.875 -0.609375 -1.390625q-0.609375 -0.5 -1.71875 -0.5q-1.03125 0 -1.546875 0.4375q-0.515625 0.453125 -0.515625 1.28125zm-3.203125 -2.1875q-0.03125 0 -0.03125 -0.03125q0 -0.03125 0.09375 -0.203125l0.078125 0.078125l-0.140625 0.15625l0 0zm0.03125 -0.25q0.046875 -0.03125 0.0625 -0.0625q0.015625 -0.015625 0.03125 -0.015625q0 0 -0.0625 0.09375l-0.03125 -0.015625z" fill-rule="nonzero"/><path fill="#b7b7b7" d="m381.84274 294.03937l0 28.379639l-30.699951 0l0 -28.379639z" fill-rule="evenodd"/><path stroke="#000000" stroke-width="1.0" stroke-linejoin="round" stroke-linecap="butt" d="m381.84274 294.03937l0 28.379639l-30.699951 0l0 -28.379639z" fill-rule="evenodd"/><path fill="#000000" d="m359.21338 308.237q0 -1.09375 0.453125 -1.984375q0.453125 -0.890625 1.21875 -1.40625q0.78125 -0.5 1.71875 -0.5q0.90625 0 1.75 0.578125q0.859375 0.59375 1.390625 1.578125q0.484375 -0.71875 1.171875 -1.171875q0.703125 -0.4375 1.453125 -0.4375q0.84375 0 1.5625 0.453125q0.71875 0.46875 1.140625 1.25q0.421875 0.796875 0.421875 1.734375q0 0.953125 -0.40625 1.734375q-0.40625 0.78125 -1.109375 1.21875q-0.703125 0.453125 -1.5 0.453125q-0.75 0 -1.46875 -0.484375q-0.71875 -0.46875 -1.203125 -1.203125q-0.515625 0.921875 -1.375 1.5q-0.84375 0.578125 -1.78125 0.578125q-0.953125 0 -1.734375 -0.515625q-0.78125 -0.515625 -1.25 -1.421875q-0.453125 -0.890625 -0.453125 -1.953125zm7.453125 0.296875q0.328125 0.484375 0.796875 0.78125q0.46875 0.3125 0.953125 0.3125q0.328125 0 0.609375 -0.1875q0.296875 -0.171875 0.46875 -0.484375q0.171875 -0.3125 0.171875 -0.671875q0 -0.359375 -0.171875 -0.65625q-0.15625 -0.296875 -0.4375 -0.46875q-0.28125 -0.15625 -0.609375 -0.15625q-0.984375 0 -1.78125 1.53125zm-5.5625 -0.265625q0 0.46875 0.203125 0.84375q0.21875 0.390625 0.5625 0.59375q0.359375 0.21875 0.796875 0.21875q0.671875 0 1.25 -0.53125q0.578125 -0.515625 0.890625 -1.375q-0.328125 -0.640625 -0.890625 -1.0625q-0.546875 -0.40625 -1.1875 -0.40625q-0.4375 0 -0.8125 0.234375q-0.359375 0.234375 -0.59375 0.625q-0.21875 0.40625 -0.21875 0.859375z" fill-rule="nonzero"/><path fill="#b7b7b7" d="m381.84274 208.90051l0 28.379623l-30.699951 0l0 -28.379623z" fill-rule="evenodd"/><path stroke="#000000" stroke-width="1.0" stroke-linejoin="round" stroke-linecap="butt" d="m381.84274 208.90051l0 28.379623l-30.699951 0l0 -28.379623z" fill-rule="evenodd"/><path fill="#000000" d="m359.57275 217.66846l9.25 0l-0.59375 -2.0l1.265625 -0.5l1.703125 3.15625l0 1.390625l-11.625 0l0 -2.046875zm0 9.328125l9.25 0l-0.59375 -2.0l1.265625 -0.5l1.703125 3.15625l0 1.390625l-11.625 0l0 -2.046875z" fill-rule="nonzero"/><path fill="#b7b7b7" d="m381.84274 237.28014l0 28.379623l-30.699951 0l0 -28.379623z" fill-rule="evenodd"/><path stroke="#000000" stroke-width="1.0" stroke-linejoin="round" stroke-linecap="butt" d="m381.84274 237.28014l0 28.379623l-30.699951 0l0 -28.379623z" fill-rule="evenodd"/><path fill="#000000" d="m359.57275 246.04807l9.25 0l-0.59375 -2.0l1.265625 -0.5l1.703125 3.15625l0 1.390625l-11.625 0l0 -2.046875zm11.84375 10.09375q0 1.265625 -0.71875 2.15625q-0.71875 0.90625 -2.09375 1.375q-1.375 0.484375 -3.28125 0.484375q-1.921875 0 -3.296875 -0.484375q-1.359375 -0.46875 -2.09375 -1.375q-0.71875 -0.890625 -0.71875 -2.15625q0 -1.2812347 0.71875 -2.1874847q0.734375 -0.89064026 2.09375 -1.3750153q1.375 -0.46875 3.296875 -0.46875q1.90625 0 3.28125 0.46875q1.375 0.484375 2.09375 1.3750153q0.71875 0.90625 0.71875 2.1874847zm-1.671875 0q0 -0.64060974 -0.53125 -1.1093597q-0.515625 -0.453125 -1.515625 -0.703125q-1.0 -0.234375 -2.375 -0.234375q-0.71875 0 -1.390625 0.078125l4.265625 3.5937347q0.75 -0.25 1.140625 -0.671875q0.40625 -0.421875 0.40625 -0.953125zm-8.84375 0q0 0.625 0.515625 1.078125q0.53125 0.46875 1.515625 0.703125q1.0 0.25 2.390625 0.25q0.8125 0 1.484375 -0.09375l-4.296875 -3.6093597q-0.78125 0.25 -1.203125 0.671875q-0.40625 0.421875 -0.40625 0.99998474z" fill-rule="nonzero"/><path fill="#b7b7b7" d="m381.84274 152.14127l0 28.379623l-30.699951 0l0 -28.379623z" fill-rule="evenodd"/><path stroke="#000000" stroke-width="1.0" stroke-linejoin="round" stroke-linecap="butt" d="m381.84274 152.14127l0 28.379623l-30.699951 0l0 -28.379623z" fill-rule="evenodd"/><path fill="#000000" d="m359.57275 160.90921l9.25 0l-0.59375 -2.0l1.265625 -0.5l1.703125 3.15625l0 1.390625l-11.625 0l0 -2.046875zm6.1875 11.75q-0.28125 0.796875 -1.03125 1.359375q-0.734375 0.5625 -1.890625 0.5625q-1.015625 0 -1.84375 -0.46875q-0.828125 -0.46875 -1.3125 -1.359375q-0.46875 -0.890625 -0.46875 -2.09375q0 -2.390625 1.578125 -3.640625l1.734375 0.875l0 0l-0.015625 0.015625q-0.78125 0.40625 -1.140625 1.0625q-0.34375 0.671875 -0.34375 1.703125q0 0.859375 0.515625 1.328125q0.515625 0.484375 1.375 0.484375q0.9375 0 1.390625 -0.53125q0.46875 -0.515625 0.46875 -1.765625q0 -0.4375 -0.0625 -0.96875l1.6875 0q0 0.140625 0 0.390625q0 1.4375 0.453125 2.0q0.46875 0.5625 1.296875 0.5625q0.671875 0 1.09375 -0.40625q0.421875 -0.390625 0.421875 -1.109375q0 -0.625 -0.21875 -1.171875q-0.21875 -0.53125 -0.75 -1.109375l1.203125 -1.171875q0.78125 0.671875 1.171875 1.546875q0.390625 0.890625 0.390625 1.890625q0 1.0625 -0.40625 1.875q-0.40625 0.828125 -1.109375 1.28125q-0.703125 0.46875 -1.578125 0.46875q-0.9375 0 -1.625 -0.484375q-0.671875 -0.46875 -0.984375 -1.125zm-3.234375 -4.765625q0.078125 -0.03125 0.125 -0.03125q0.015625 0 0.015625 0.015625q0 0.015625 -0.03125 0.078125l-0.109375 -0.0625zm0.03125 0.265625q-0.015625 0 -0.015625 0q0 -0.03125 0.03125 -0.109375q0.046875 -0.0625 0.0625 -0.09375l0.03125 0l-0.09375 0.203125l-0.015625 0z" fill-rule="nonzero"/><path fill="#b7b7b7" d="m381.84274 180.52089l0 28.379623l-30.699951 0l0 -28.379623z" fill-rule="evenodd"/><path stroke="#000000" stroke-width="1.0" stroke-linejoin="round" stroke-linecap="butt" d="m381.84274 180.52089l0 28.379623l-30.699951 0l0 -28.379623z" fill-rule="evenodd"/><path fill="#000000" d="m359.57275 189.28883l9.25 0l-0.59375 -2.0l1.265625 -0.5l1.703125 3.15625l0 1.390625l-11.625 0l0 -2.046875zm1.53125 6.484375q2.15625 2.25 3.1875 3.234375q1.03125 0.984375 1.921875 1.484375q0.890625 0.515625 1.8125 0.515625q0.734375 0 1.171875 -0.46875q0.4375 -0.453125 0.4375 -1.234375q0 -0.46875 -0.109375 -0.90625q-0.109375 -0.421875 -0.265625 -0.71875q-0.15625 -0.296875 -0.296875 -0.359375q-0.65625 -0.375 -0.71875 -0.375q-0.015625 0 -0.015625 0.015625q0.015625 0.015625 0.046875 0.046875q0.03125 0.046875 0.03125 0.078125q0.015625 0.03125 -0.03125 0.03125l-0.1875 -0.09375l0.078125 -0.140625l1.046875 -1.390625q1.09375 0.671875 1.671875 1.65625q0.578125 0.984375 0.578125 2.1875q0 1.046875 -0.4375 1.875q-0.4375 0.828125 -1.21875 1.296875q-0.765625 0.46875 -1.765625 0.46875q-0.984375 0 -1.90625 -0.46875q-0.90625 -0.46875 -1.765625 -1.234375q-0.859375 -0.765625 -2.328125 -2.234375l-0.734375 -0.75l0 3.796875q0 0.296875 0.03125 0.4375q0.03125 0.15625 0.125 0.265625l0 0.203125l-1.890625 0l0 -7.21875l1.53125 0z" fill-rule="nonzero"/><path fill="#b7b7b7" d="m88.229675 492.69675l0 28.379608l-30.69997 0l0 -28.379608z" fill-rule="evenodd"/><path stroke="#000000" stroke-width="1.0" stroke-linejoin="round" stroke-linecap="butt" d="m88.229675 492.69675l0 28.379608l-30.69997 0l0 -28.379608z" fill-rule="evenodd"/><path fill="#000000" d="m65.959694 504.5428l3.0 -0.828125l0 -2.984375l-3.0 -0.84375l0 -2.140625l11.625 3.875l0 1.21875l-11.625 3.890625l0 -2.1875zm4.453125 -3.390625l0 2.15625l3.859375 -1.0625l-3.859375 -1.09375zm-4.453125 10.8125l2.875 0l0 -4.4375l1.3125 0l7.4375 5.03125l0 1.5l-7.015625 0l0 1.5625l-1.765625 0l0 -1.5625l-2.84375 0l0 -2.09375zm4.5625 -2.28125l0 2.34375l3.46875 0l-3.46875 -2.34375z" fill-rule="nonzero"/><path fill="#b7b7b7" d="m88.229675 521.07635l0 28.379639l-30.69997 0l0 -28.379639z" fill-rule="evenodd"/><path stroke="#000000" stroke-width="1.0" stroke-linejoin="round" stroke-linecap="butt" d="m88.229675 521.07635l0 28.379639l-30.69997 0l0 -28.379639z" fill-rule="evenodd"/><path fill="#000000" d="m65.959694 532.9224l3.0 -0.828125l0 -2.984375l-3.0 -0.84375l0 -2.140625l11.625 3.875l0 1.21875l-11.625 3.890625l0 -2.1875zm4.453125 -3.390625l0 2.15625l3.859375 -1.0625l-3.859375 -1.09375zm3.34375 10.703125q0 1.09375 -0.484375 1.90625q-0.484375 0.828125 -1.390625 1.265625q-0.90625 0.453125 -2.171875 0.453125q-1.203125 0 -2.140625 -0.46875q-0.921875 -0.46875 -1.453125 -1.34375q-0.515625 -0.875 -0.515625 -2.046875q0 -2.5625 2.203125 -3.734375l1.1875 1.546875l0.015625 0.015625l-0.015625 0q-0.484375 0.25 -0.8125 0.5q-0.3125 0.265625 -0.515625 0.65625q-0.203125 0.390625 -0.203125 0.953125q0 0.53125 0.25 0.953125q0.265625 0.421875 0.765625 0.65625q0.515625 0.25 1.25 0.25q1.09375 0 1.6875 -0.5q0.609375 -0.484375 0.609375 -1.296875q0 -0.546875 -0.265625 -0.984375q-0.265625 -0.421875 -0.84375 -0.84375l0.5625 -1.34375l6.109375 0.4375l0 6.25l-1.78125 0l0 -4.421875l-2.25 -0.15625q0.203125 0.6875 0.203125 1.296875zm-4.75 -2.40625q0.078125 -0.046875 0.109375 -0.046875q0.015625 0 -0.078125 0.078125l-0.03125 -0.03125zm-0.09375 0.25q-0.03125 0 -0.03125 -0.03125q0 -0.03125 0.0625 -0.109375q0.078125 -0.0625 0.09375 -0.078125l0.0625 0.078125l-0.1875 0.140625z" fill-rule="nonzero"/><path fill="#b7b7b7" d="m88.229675 435.9375l0 28.379608l-30.69997 0l0 -28.379608z" fill-rule="evenodd"/><path stroke="#000000" stroke-width="1.0" stroke-linejoin="round" stroke-linecap="butt" d="m88.229675 435.9375l0 28.379608l-30.69997 0l0 -28.379608z" fill-rule="evenodd"/><path fill="#000000" d="m65.959694 447.78354l3.0 -0.828125l0 -2.984375l-3.0 -0.84375l0 -2.140625l11.625 3.875l0 1.21875l-11.625 3.890625l0 -2.1875zm4.453125 -3.390625l0 2.15625l3.859375 -1.0625l-3.859375 -1.09375zm-2.921875 6.796875q2.15625 2.25 3.1875 3.234375q1.03125 0.984375 1.921875 1.484375q0.890625 0.515625 1.8125 0.515625q0.734375 0 1.171875 -0.46875q0.4375 -0.453125 0.4375 -1.234375q0 -0.46875 -0.109375 -0.90625q-0.109375 -0.421875 -0.265625 -0.71875q-0.15625 -0.296875 -0.296875 -0.359375q-0.65625 -0.375 -0.71875 -0.375q-0.015625 0 -0.015625 0.015625q0.015625 0.015625 0.046875 0.046875q0.03125 0.046875 0.03125 0.078125q0.015625 0.03125 -0.03125 0.03125l-0.1875 -0.09375l0.078125 -0.140625l1.046875 -1.390625q1.09375 0.671875 1.671875 1.65625q0.578125 0.984375 0.578125 2.1875q0 1.046875 -0.4375 1.875q-0.4375 0.828125 -1.21875 1.296875q-0.765625 0.46875 -1.765625 0.46875q-0.984375 0 -1.90625 -0.46875q-0.90625 -0.46875 -1.765625 -1.234375q-0.859375 -0.765625 -2.328125 -2.234375l-0.734375 -0.75l0 3.796875q0 0.296875 0.03125 0.4375q0.03125 0.15625 0.125 0.265625l0 0.203125l-1.890625 0l0 -7.21875l1.53125 0z" fill-rule="nonzero"/><path fill="#b7b7b7" d="m88.229675 464.3171l0 28.379639l-30.69997 0l0 -28.379639z" fill-rule="evenodd"/><path stroke="#000000" stroke-width="1.0" stroke-linejoin="round" stroke-linecap="butt" d="m88.229675 464.3171l0 28.379639l-30.69997 0l0 -28.379639z" fill-rule="evenodd"/><path fill="#000000" d="m65.959694 476.16318l3.0 -0.828125l0 -2.984375l-3.0 -0.84375l0 -2.140625l11.625 3.875l0 1.21875l-11.625 3.890625l0 -2.1875zm4.453125 -3.390625l0 2.15625l3.859375 -1.0625l-3.859375 -1.09375zm1.734375 12.0625q-0.28125 0.796875 -1.03125 1.359375q-0.734375 0.5625 -1.890625 0.5625q-1.015625 0 -1.84375 -0.46875q-0.828125 -0.46875 -1.3125 -1.359375q-0.46875 -0.890625 -0.46875 -2.09375q0 -2.390625 1.578125 -3.640625l1.734375 0.875l0 0l-0.015625 0.015625q-0.78125 0.40625 -1.140625 1.0625q-0.34375 0.671875 -0.34375 1.703125q0 0.859375 0.515625 1.328125q0.515625 0.484375 1.375 0.484375q0.9375 0 1.390625 -0.53125q0.46875 -0.515625 0.46875 -1.765625q0 -0.4375 -0.0625 -0.96875l1.6875 0q0 0.140625 0 0.390625q0 1.4375 0.453125 2.0q0.46875 0.5625 1.296875 0.5625q0.671875 0 1.09375 -0.40625q0.421875 -0.390625 0.421875 -1.109375q0 -0.625 -0.21875 -1.171875q-0.21875 -0.53125 -0.75 -1.109375l1.203125 -1.171875q0.78125 0.671875 1.171875 1.546875q0.390625 0.890625 0.390625 1.890625q0 1.0625 -0.40625 1.875q-0.40625 0.828125 -1.109375 1.28125q-0.703125 0.46875 -1.578125 0.46875q-0.9375 0 -1.625 -0.484375q-0.671875 -0.46875 -0.984375 -1.125zm-3.234375 -4.765625q0.078125 -0.03125 0.125 -0.03125q0.015625 0 0.015625 0.015625q0 0.015625 -0.03125 0.078125l-0.109375 -0.0625zm0.03125 0.265625q-0.015625 0 -0.015625 0q0 -0.03125 0.03125 -0.109375q0.046875 -0.0625 0.0625 -0.09375l0.03125 0l-0.09375 0.203125l-0.015625 0z" fill-rule="nonzero"/><path fill="#b7b7b7" d="m88.229675 379.17825l0 28.379608l-30.69997 0l0 -28.379608z" fill-rule="evenodd"/><path stroke="#000000" stroke-width="1.0" stroke-linejoin="round" stroke-linecap="butt" d="m88.229675 379.17825l0 28.379608l-30.69997 0l0 -28.379608z" fill-rule="evenodd"/><path fill="#000000" d="m65.959694 391.02432l3.0 -0.828125l0 -2.984375l-3.0 -0.84375l0 -2.140625l11.625 3.875l0 1.21875l-11.625 3.890625l0 -2.1875zm4.453125 -3.390625l0 2.15625l3.859375 -1.0625l-3.859375 -1.09375zm7.390625 10.40625q0 1.265625 -0.71875 2.15625q-0.71875 0.90625 -2.09375 1.375q-1.375 0.484375 -3.28125 0.484375q-1.921875 0 -3.296875 -0.484375q-1.359375 -0.46875 -2.09375 -1.375q-0.71875 -0.890625 -0.71875 -2.15625q0 -1.28125 0.71875 -2.1875q0.734375 -0.890625 2.09375 -1.375q1.375 -0.46875 3.296875 -0.46875q1.90625 0 3.28125 0.46875q1.375 0.484375 2.09375 1.375q0.71875 0.90625 0.71875 2.1875zm-1.671875 0q0 -0.640625 -0.53125 -1.109375q-0.515625 -0.453125 -1.515625 -0.703125q-1.0 -0.234375 -2.375 -0.234375q-0.71875 0 -1.390625 0.078125l4.265625 3.59375q0.75 -0.25 1.140625 -0.671875q0.40625 -0.421875 0.40625 -0.953125zm-8.84375 0q0 0.625 0.515625 1.078125q0.53125 0.46875 1.515625 0.703125q1.0 0.25 2.390625 0.25q0.8125 0 1.484375 -0.09375l-4.296875 -3.609375q-0.78125 0.25 -1.203125 0.671875q-0.40625 0.421875 -0.40625 1.0z" fill-rule="nonzero"/><path fill="#b7b7b7" d="m88.229675 407.55786l0 28.379639l-30.69997 0l0 -28.379639z" fill-rule="evenodd"/><path stroke="#000000" stroke-width="1.0" stroke-linejoin="round" stroke-linecap="butt" d="m88.229675 407.55786l0 28.379639l-30.69997 0l0 -28.379639z" fill-rule="evenodd"/><path fill="#000000" d="m65.959694 419.40393l3.0 -0.828125l0 -2.984375l-3.0 -0.84375l0 -2.140625l11.625 3.875l0 1.21875l-11.625 3.890625l0 -2.1875zm4.453125 -3.390625l0 2.15625l3.859375 -1.0625l-3.859375 -1.09375zm-4.453125 9.640625l9.25 0l-0.59375 -2.0l1.265625 -0.5l1.703125 3.15625l0 1.390625l-11.625 0l0 -2.046875z" fill-rule="nonzero"/><path fill="#b7b7b7" d="m57.529705 265.71332l54.403202 0l0 28.272522l-54.403202 0z" fill-rule="evenodd"/><path stroke="#000000" stroke-width="1.0" stroke-linejoin="round" stroke-linecap="butt" d="m57.529705 265.71332l54.403202 0l0 28.272522l-54.403202 0z" fill-rule="evenodd"/><path fill="#000000" d="m75.45787 280.89456l3.953125 0l0 4.875q-0.828125 0.703125 -1.71875 1.015625q-0.875 0.328125 -1.921875 0.328125q-1.484375 0 -2.5625 -0.78125q-1.0625 -0.78125 -1.625 -2.15625q-0.546875 -1.390625 -0.546875 -3.234375q0 -2.25 0.765625 -3.609375q0.78125 -1.375 1.859375 -1.921875q1.09375 -0.5625 2.109375 -0.5625q1.171875 0 2.140625 0.625q0.96875 0.609375 1.53125 1.65625l-1.390625 1.34375l-0.015625 0.015625q-0.09375 -0.125 -0.28125 -0.4375q-0.25 -0.421875 -0.484375 -0.703125q-0.21875 -0.296875 -0.609375 -0.5q-0.375 -0.21875 -0.921875 -0.21875q-0.671875 0 -1.25 0.421875q-0.578125 0.421875 -0.9375 1.375q-0.359375 0.9375 -0.359375 2.390625q0 1.375 0.328125 2.40625q0.328125 1.03125 0.921875 1.578125q0.59375 0.53125 1.328125 0.53125q1.03125 0 1.671875 -0.484375l0 -2.1875l-1.984375 0l0 -1.765625zm2.328125 -2.453125q0 -0.046875 0.03125 -0.046875q0.03125 0 0.1875 0.125l-0.0625 0.0625l-0.15625 -0.140625l0 0zm0.34375 0.15625q0 0 -0.125 -0.078125l0.03125 -0.03125l0.09375 0.109375zm2.53125 -3.453125l2.5625 0l3.6875 8.328125l0 -8.328125l2.03125 0l0 0.203125q-0.109375 0.109375 -0.140625 0.25q-0.015625 0.125 0 0.4375l0 10.734375l-2.3125 0l-3.9375 -8.796875l0 8.796875l-1.890625 0l0 -11.625zm9.546875 0l3.015625 0q1.484375 0 2.359375 0.40625q0.875 0.390625 1.5 1.21875q1.1875 1.625 1.1875 4.265625q0 2.75 -1.28125 4.25q-1.265625 1.484375 -4.0 1.484375l-2.78125 0l0 -11.625zm2.75 9.984375q1.625 0 2.421875 -1.03125q0.796875 -1.03125 0.796875 -3.0q0 -4.21875 -3.03125 -4.21875l-0.90625 0l0 8.25l0.71875 0z" fill-rule="nonzero"/><path fill="#b7b7b7" d="m327.4448 123.85562l54.393707 0l0 28.283463l-54.393707 0z" fill-rule="evenodd"/><path stroke="#000000" stroke-width="1.0" stroke-linejoin="round" stroke-linecap="butt" d="m327.4448 123.85562l54.393707 0l0 28.283463l-54.393707 0z" fill-rule="evenodd"/><path fill="#000000" d="m345.3682 139.04234l3.953125 0l0 4.875q-0.828125 0.703125 -1.71875 1.015625q-0.875 0.328125 -1.921875 0.328125q-1.484375 0 -2.5625 -0.78125q-1.0625 -0.78125 -1.625 -2.15625q-0.546875 -1.390625 -0.546875 -3.234375q0 -2.25 0.765625 -3.609375q0.78125 -1.375 1.859375 -1.921875q1.09375 -0.5625 2.109375 -0.5625q1.171875 0 2.140625 0.625q0.96875 0.609375 1.53125 1.65625l-1.390625 1.34375l-0.015625 0.015625q-0.09375 -0.125 -0.28125 -0.4375q-0.25 -0.421875 -0.484375 -0.703125q-0.21875 -0.296875 -0.609375 -0.5q-0.375 -0.21875 -0.921875 -0.21875q-0.671875 0 -1.25 0.421875q-0.578125 0.421875 -0.9375 1.375q-0.359375 0.9375 -0.359375 2.390625q0 1.375 0.328125 2.40625q0.328125 1.03125 0.921875 1.578125q0.59375 0.53125 1.328125 0.53125q1.03125 0 1.671875 -0.484375l0 -2.1875l-1.984375 0l0 -1.765625zm2.328125 -2.453125q0 -0.046875 0.03125 -0.046875q0.03125 0 0.1875 0.125l-0.0625 0.0625l-0.15625 -0.140625l0 0zm0.34375 0.15625q0 0 -0.125 -0.078125l0.03125 -0.03125l0.09375 0.109375zm2.53125 -3.453125l2.5625 0l3.6875 8.328125l0 -8.328125l2.03125 0l0 0.203125q-0.109375 0.109375 -0.140625 0.25q-0.015625 0.125 0 0.4375l0 10.734375l-2.3125 0l-3.9375 -8.796875l0 8.796875l-1.890625 0l0 -11.625zm9.546875 0l3.015625 0q1.484375 0 2.359375 0.40625q0.875 0.390625 1.5 1.21875q1.1875 1.625 1.1875 4.265625q0 2.75 -1.28125 4.25q-1.265625 1.484375 -4.0 1.484375l-2.78125 0l0 -11.625zm2.75 9.984375q1.625 0 2.421875 -1.03125q0.796875 -1.03125 0.796875 -3.0q0 -4.21875 -3.03125 -4.21875l-0.90625 0l0 8.25l0.71875 0z" fill-rule="nonzero"/><path fill="#b7b7b7" d="m327.43954 95.48912l54.4032 0l0 28.27253l-54.4032 0z" fill-rule="evenodd"/><path stroke="#000000" stroke-width="1.0" stroke-linejoin="round" stroke-linecap="butt" d="m327.43954 95.48912l54.4032 0l0 28.27253l-54.4032 0z" fill-rule="evenodd"/><path fill="#000000" d="m342.96927 116.54538l-0.828125 -3.0l-2.984375 0l-0.84375 3.0l-2.140625 0l3.875 -11.625l1.21875 0l3.890625 11.625l-2.1875 0zm-3.390625 -4.453125l2.15625 0l-1.0625 -3.859375l-1.09375 3.859375zm6.609375 -7.171875l3.6875 0q2.078125 0 3.0625 0.921875q1.0 0.90625 1.0 2.546875q0 0.640625 -0.28125 1.28125q-0.28125 0.640625 -0.796875 1.125q-0.5 0.484375 -1.15625 0.6875l2.734375 5.0625l-2.359375 0l-2.40625 -4.8125l-1.359375 0l0 4.8125l-2.125 0l0 -11.625zm3.8125 5.03125q0.890625 0 1.34375 -0.40625q0.453125 -0.421875 0.453125 -1.15625q0 -0.8125 -0.4375 -1.21875q-0.4375 -0.40625 -1.359375 -0.40625l-1.6875 0l0 3.1875l1.6875 0zm5.6875 6.59375l0 -11.625l7.578125 0l0 1.796875l-5.546875 0l0 2.875l4.59375 0l0 1.828125l-4.59375 0l0 3.328125l5.5 0l0 1.796875l-7.53125 0zm9.546875 0l0 -11.625l7.21875 0l0 1.78125l-5.125 0l0 2.71875l4.140625 0l0 1.75l-4.140625 0l0 5.375l-2.09375 0z" fill-rule="nonzero"/><path fill="#b7b7b7" d="m57.529705 294.09293l54.403202 0l0 28.272522l-54.403202 0z" fill-rule="evenodd"/><path stroke="#000000" stroke-width="1.0" stroke-linejoin="round" stroke-linecap="butt" d="m57.529705 294.09293l54.403202 0l0 28.272522l-54.403202 0z" fill-rule="evenodd"/><path fill="#000000" d="m75.45787 309.2742l3.953125 0l0 4.875q-0.828125 0.703125 -1.71875 1.015625q-0.875 0.328125 -1.921875 0.328125q-1.484375 0 -2.5625 -0.78125q-1.0625 -0.78125 -1.625 -2.15625q-0.546875 -1.390625 -0.546875 -3.234375q0 -2.25 0.765625 -3.609375q0.78125 -1.375 1.859375 -1.921875q1.09375 -0.5625 2.109375 -0.5625q1.171875 0 2.140625 0.625q0.96875 0.609375 1.53125 1.65625l-1.390625 1.34375l-0.015625 0.015625q-0.09375 -0.125 -0.28125 -0.4375q-0.25 -0.421875 -0.484375 -0.703125q-0.21875 -0.296875 -0.609375 -0.5q-0.375 -0.21875 -0.921875 -0.21875q-0.671875 0 -1.25 0.421875q-0.578125 0.421875 -0.9375 1.375q-0.359375 0.9375 -0.359375 2.390625q0 1.375 0.328125 2.40625q0.328125 1.03125 0.921875 1.578125q0.59375 0.53125 1.328125 0.53125q1.03125 0 1.671875 -0.484375l0 -2.1875l-1.984375 0l0 -1.765625zm2.328125 -2.453125q0 -0.046875 0.03125 -0.046875q0.03125 0 0.1875 0.125l-0.0625 0.0625l-0.15625 -0.140625l0 0zm0.34375 0.15625q0 0 -0.125 -0.078125l0.03125 -0.03125l0.09375 0.109375zm2.53125 -3.453125l2.5625 0l3.6875 8.328125l0 -8.328125l2.03125 0l0 0.203125q-0.109375 0.109375 -0.140625 0.25q-0.015625 0.125 0 0.4375l0 10.734375l-2.3125 0l-3.9375 -8.796875l0 8.796875l-1.890625 0l0 -11.625zm9.546875 0l3.015625 0q1.484375 0 2.359375 0.40625q0.875 0.390625 1.5 1.21875q1.1875 1.625 1.1875 4.265625q0 2.75 -1.28125 4.25q-1.265625 1.484375 -4.0 1.484375l-2.78125 0l0 -11.625zm2.75 9.984375q1.625 0 2.421875 -1.03125q0.796875 -1.03125 0.796875 -3.0q0 -4.21875 -3.03125 -4.21875l-0.90625 0l0 8.25l0.71875 0z" fill-rule="nonzero"/><path fill="#b7b7b7" d="m57.529705 322.5261l54.403202 0l0 28.272522l-54.403202 0z" fill-rule="evenodd"/><path stroke="#000000" stroke-width="1.0" stroke-linejoin="round" stroke-linecap="butt" d="m57.529705 322.5261l54.403202 0l0 28.272522l-54.403202 0z" fill-rule="evenodd"/><path fill="#000000" d="m74.692245 343.58237l-3.765625 -11.625l2.203125 0l2.4375 8.25l2.3125 -8.25l2.15625 0l-3.734375 11.625l-1.609375 0zm7.03125 0l0 -1.671875l2.09375 0l0 -5.359375l-1.984375 0l0 -1.671875l4.078125 0l0 7.03125l1.90625 0l0 1.671875l-6.09375 0zm3.0 -10.21875q-0.359375 0 -0.65625 -0.171875q-0.296875 -0.171875 -0.46875 -0.453125q-0.171875 -0.28125 -0.171875 -0.609375q0 -0.53125 0.359375 -0.875q0.359375 -0.359375 0.9375 -0.359375q0.34375 0 0.640625 0.171875q0.3125 0.15625 0.484375 0.453125q0.1875 0.28125 0.1875 0.609375q0 0.328125 -0.1875 0.609375q-0.171875 0.28125 -0.484375 0.453125q-0.296875 0.171875 -0.640625 0.171875zm5.796875 1.515625l2.09375 0l0 0.890625q0.46875 -0.515625 1.109375 -0.796875q0.640625 -0.296875 1.390625 -0.296875q1.234375 0 1.96875 0.890625q0.75 0.875 0.75 2.734375l0 5.28125l-2.09375 0l0 -5.265625q0 -0.984375 -0.359375 -1.4375q-0.359375 -0.46875 -1.078125 -0.46875q-0.4375 0 -0.828125 0.171875q-0.390625 0.171875 -0.625 0.53125q-0.234375 0.359375 -0.234375 0.875l0 5.59375l-2.09375 0l0 -8.703125z" fill-rule="nonzero"/><path fill="#b7b7b7" d="m57.529705 209.00761l54.403202 0l0 28.272522l-54.403202 0z" fill-rule="evenodd"/><path stroke="#000000" stroke-width="1.0" stroke-linejoin="round" stroke-linecap="butt" d="m57.529705 209.00761l54.403202 0l0 28.272522l-54.403202 0z" fill-rule="evenodd"/><path fill="#000000" d="m72.40318 223.87637q0.796875 0.28125 1.359375 1.03125q0.5625 0.734375 0.5625 1.890625q0 1.015625 -0.46875 1.84375q-0.46875 0.828125 -1.359375 1.3125q-0.890625 0.46875 -2.09375 0.46875q-2.390625 0 -3.640625 -1.578125l0.875 -1.734375l0 0l0.015625 0.015625q0.40625 0.78125 1.0625 1.140625q0.671875 0.34375 1.703125 0.34375q0.859375 0 1.328125 -0.515625q0.484375 -0.515625 0.484375 -1.375q0 -0.9375 -0.53125 -1.390625q-0.515625 -0.46875 -1.765625 -0.46875q-0.4375 0 -0.96875 0.0625l0 -1.6875q0.140625 0 0.390625 0q1.4375 0 2.0 -0.453125q0.5625 -0.46875 0.5625 -1.296875q0 -0.671875 -0.40625 -1.09375q-0.390625 -0.421875 -1.109375 -0.421875q-0.625 0 -1.171875 0.21875q-0.53125 0.21875 -1.109375 0.75l-1.171875 -1.203125q0.671875 -0.78125 1.546875 -1.171875q0.890625 -0.390625 1.890625 -0.390625q1.0625 0 1.875 0.40625q0.828125 0.40625 1.28125 1.109375q0.46875 0.703125 0.46875 1.578125q0 0.9375 -0.484375 1.625q-0.46875 0.671875 -1.125 0.984375zm-4.765625 3.234375q-0.03125 -0.078125 -0.03125 -0.125q0 -0.015625 0.015625 -0.015625q0.015625 0 0.078125 0.03125l-0.0625 0.109375zm0.265625 -0.03125q0 0.015625 0 0.015625q-0.03125 0 -0.109375 -0.03125q-0.0625 -0.046875 -0.09375 -0.0625l0 -0.03125l0.203125 0.09375l0 0.015625zm11.984375 3.234375q-0.34375 0 -0.640625 -0.171875q-0.296875 -0.171875 -0.46875 -0.46875q-0.171875 -0.296875 -0.171875 -0.640625q0 -0.328125 0.171875 -0.609375q0.171875 -0.296875 0.46875 -0.46875q0.296875 -0.171875 0.640625 -0.171875q0.328125 0 0.609375 0.171875q0.296875 0.171875 0.46875 0.46875q0.171875 0.28125 0.171875 0.609375q0 0.34375 -0.171875 0.640625q-0.171875 0.296875 -0.46875 0.46875q-0.28125 0.171875 -0.609375 0.171875zm11.171875 -6.4375q0.796875 0.28125 1.359375 1.03125q0.5625 0.734375 0.5625 1.890625q0 1.015625 -0.46875 1.84375q-0.46875 0.828125 -1.359375 1.3125q-0.890625 0.46875 -2.09375 0.46875q-2.390625 0 -3.640625 -1.578125l0.875 -1.734375l0 0l0.015625 0.015625q0.40625 0.78125 1.0625 1.140625q0.671875 0.34375 1.703125 0.34375q0.859375 0 1.328125 -0.515625q0.484375 -0.515625 0.484375 -1.375q0 -0.9375 -0.53125 -1.390625q-0.515625 -0.46875 -1.765625 -0.46875q-0.4375 0 -0.96875 0.0625l0 -1.6875q0.140625 0 0.390625 0q1.4375 0 2.0 -0.453125q0.5625 -0.46875 0.5625 -1.296875q0 -0.671875 -0.40625 -1.09375q-0.390625 -0.421875 -1.109375 -0.421875q-0.625 0 -1.171875 0.21875q-0.53125 0.21875 -1.109375 0.75l-1.171875 -1.203125q0.671875 -0.78125 1.546875 -1.171875q0.890625 -0.390625 1.890625 -0.390625q1.0625 0 1.875 0.40625q0.828125 0.40625 1.28125 1.109375q0.46875 0.703125 0.46875 1.578125q0 0.9375 -0.484375 1.625q-0.46875 0.671875 -1.125 0.984375zm-4.765625 3.234375q-0.03125 -0.078125 -0.03125 -0.125q0 -0.015625 0.015625 -0.015625q0.015625 0 0.078125 0.03125l-0.0625 0.109375zm0.265625 -0.03125q0 0.015625 0 0.015625q-0.03125 0 -0.109375 -0.03125q-0.0625 -0.046875 -0.09375 -0.0625l0 -0.03125l0.203125 0.09375l0 0.015625zm11.453125 2.984375l-3.765625 -11.625l2.203125 0l2.4375 8.25l2.3125 -8.25l2.15625 0l-3.734375 11.625l-1.609375 0z" fill-rule="nonzero"/><path fill="#b7b7b7" d="m57.529705 237.38724l54.403202 0l0 28.272522l-54.403202 0z" fill-rule="evenodd"/><path stroke="#000000" stroke-width="1.0" stroke-linejoin="round" stroke-linecap="butt" d="m57.529705 237.38724l54.403202 0l0 28.272522l-54.403202 0z" fill-rule="evenodd"/><path fill="#000000" d="m80.37193 250.64662q1.09375 0 1.90625 0.484375q0.828125 0.484375 1.265625 1.390625q0.453125 0.90625 0.453125 2.171875q0 1.203125 -0.46875 2.1406097q-0.46875 0.921875 -1.34375 1.453125q-0.875 0.515625 -2.046875 0.515625q-2.5625 0 -3.734375 -2.203125l1.546875 -1.1874847l0.015625 -0.015625l0 0.015625q0.25 0.484375 0.5 0.81248474q0.265625 0.3125 0.65625 0.515625q0.390625 0.203125 0.953125 0.203125q0.53125 0 0.953125 -0.25q0.421875 -0.265625 0.65625 -0.76560974q0.25 -0.515625 0.25 -1.25q0 -1.09375 -0.5 -1.6875q-0.484375 -0.609375 -1.296875 -0.609375q-0.546875 0 -0.984375 0.265625q-0.421875 0.265625 -0.84375 0.84375l-1.34375 -0.5625l0.4375 -6.109375l6.25 0l0 1.78125l-4.421875 0l-0.15625 2.25q0.6875 -0.203125 1.296875 -0.203125zm-2.40625 4.75q-0.046875 -0.078125 -0.046875 -0.109375q0 -0.015625 0.078125 0.078125l-0.03125 0.03125zm0.25 0.09375q0 0.03125 -0.03125 0.03125q-0.03125 0 -0.109375 -0.0625q-0.0625 -0.078125 -0.078125 -0.09375l0.078125 -0.0625l0.140625 0.1875zm10.46875 2.9531097l-3.765625 -11.624985l2.203125 0l2.4375 8.25l2.3125 -8.25l2.15625 0l-3.734375 11.624985l-1.609375 0z" fill-rule="nonzero"/><path fill="#b7b7b7" d="m57.529705 180.68153l54.403202 0l0 28.272522l-54.403202 0z" fill-rule="evenodd"/><path stroke="#000000" stroke-width="1.0" stroke-linejoin="round" stroke-linecap="butt" d="m57.529705 180.68153l54.403202 0l0 28.272522l-54.403202 0z" fill-rule="evenodd"/><path fill="#000000" d="m62.28599 190.1128l3.6875038 0q2.078125 0 3.0625 0.921875q1.0 0.90625 1.0 2.546875q0 0.640625 -0.28125 1.28125q-0.28125 0.640625 -0.796875 1.125q-0.5 0.484375 -1.15625 0.6875l2.734375 5.0625l-2.359375 0l-2.40625 -4.8125l-1.359375 0l0 4.8125l-2.1250038 0l0 -11.625zm3.8125038 5.03125q0.890625 0 1.34375 -0.40625q0.453125 -0.421875 0.453125 -1.15625q0 -0.8125 -0.4375 -1.21875q-0.4375 -0.40625 -1.359375 -0.40625l-1.6875 0l0 3.1875l1.6875 0zm5.6875 6.59375l0 -11.625l7.578125 0l0 1.796875l-5.546875 0l0 2.875l4.59375 0l0 1.828125l-4.59375 0l0 3.328125l5.5 0l0 1.796875l-7.53125 0zm13.8125 -6.734375q1.1875 0.5625 1.84375 1.09375q0.65625 0.515625 0.921875 1.09375q0.28125 0.578125 0.28125 1.34375q0 0.921875 -0.4375 1.734375q-0.421875 0.796875 -1.34375 1.3125q-0.921875 0.5 -2.34375 0.5q-2.265625 0 -3.9375 -1.625l0.921875 -1.59375l0 -0.015625l0.015625 0.015625q1.359375 1.421875 3.171875 1.421875q0.875 0 1.34375 -0.40625q0.484375 -0.421875 0.484375 -1.234375q0 -0.40625 -0.203125 -0.734375q-0.203125 -0.34375 -0.703125 -0.671875q-0.484375 -0.34375 -1.359375 -0.734375q-1.625 -0.703125 -2.359375 -1.578125q-0.71875 -0.875 -0.71875 -2.03125q0 -0.84375 0.46875 -1.546875q0.46875 -0.703125 1.28125 -1.109375q0.828125 -0.421875 1.859375 -0.421875q1.15625 0 1.984375 0.390625q0.84375 0.375 1.609375 1.171875l-1.046875 1.453125l0 0.03125q-0.015625 0 -0.015625 0q0 -0.015625 0 -0.015625q-0.421875 -0.6875 -1.09375 -1.0q-0.65625 -0.3125 -1.453125 -0.3125q-0.515625 0 -0.890625 0.1875q-0.359375 0.171875 -0.546875 0.46875q-0.1875 0.28125 -0.1875 0.625q0 0.40625 0.203125 0.734375q0.21875 0.3125 0.734375 0.640625q0.53125 0.328125 1.515625 0.8125zm1.46875 -2.171875q0 -0.015625 0.015625 -0.015625q0.03125 0 0.078125 0.046875q0.0625 0.03125 0.109375 0.0625l-0.03125 0.046875l-0.171875 -0.109375l0 -0.03125zm0.265625 0.03125q0.0625 0.09375 0.0625 0.125q0 0 -0.015625 0q-0.03125 0 -0.109375 -0.0625l0.0625 -0.0625zm-5.5625 6.0q0 0.015625 -0.015625 0.015625q-0.03125 0 -0.109375 -0.03125q-0.0625 -0.046875 -0.109375 -0.0625l0.046875 -0.0625l0.171875 0.109375l0.015625 0.03125zm-0.265625 -0.015625q-0.078125 -0.0625 -0.078125 -0.09375q0 0 0 0q0 -0.015625 0.015625 -0.015625l0.09375 0.046875l-0.03125 0.0625zm8.9375 2.890625l0 -11.625l7.578125 0l0 1.796875l-5.546875 0l0 2.875l4.59375 0l0 1.828125l-4.59375 0l0 3.328125l5.5 0l0 1.796875l-7.53125 0zm11.8125 0l0 -9.8125l-3.15625 0l0 -1.8125l8.5625 0l0 1.8125l-3.28125 0l0 9.8125l-2.125 0z" fill-rule="nonzero"/></g></svg>